<svg width="73" height="30" viewBox="0 0 73 30" fill="none" xmlns="http://www.w3.org/2000/svg">
<path d="M17.8714 0.559967C19.1407 0.186634 20.214 0.345301 21.0914 1.03597C21.9687 1.70797 22.4074 2.7253 22.4074 4.08797C22.4074 4.47997 22.3047 5.22663 22.0994 6.32797C21.9127 7.41063 21.754 8.1293 21.6234 8.48397C21.586 8.59597 21.6327 8.67063 21.7634 8.70797C21.8754 8.72663 22.2114 8.75463 22.7714 8.79197C24.0967 8.8853 25.002 9.09064 25.4874 9.40797C25.9914 9.7253 26.122 10.192 25.8794 10.808C25.7487 11.1066 25.5434 11.284 25.2634 11.34C25.002 11.3773 24.386 11.3306 23.4154 11.2C22.6127 11.1066 21.6887 11.032 20.6434 10.976C19.6167 10.92 19.0007 10.92 18.7954 10.976C18.5714 11.0506 18.4034 11.732 18.2914 13.02C18.2727 13.3746 18.2914 13.58 18.3474 13.636C18.4034 13.6733 18.6834 13.72 19.1874 13.776C20.4567 13.9253 21.3434 14.308 21.8474 14.924C22.3514 15.54 22.3887 16.296 21.9594 17.192C21.586 17.9573 20.8674 18.564 19.8034 19.012C18.7394 19.4413 17.2274 19.74 15.2674 19.908C15.1554 19.9266 14.9967 19.9453 14.7914 19.964C14.0634 20.02 13.6434 20.076 13.5314 20.132C13.4194 20.188 13.3634 20.3653 13.3634 20.664C13.3634 20.7386 13.3634 20.7946 13.3634 20.832C13.3634 21.1306 13.3727 21.3733 13.3914 21.56C13.41 21.7466 13.4287 21.896 13.4474 22.008C13.466 22.1386 13.4847 22.2226 13.5034 22.26C13.5407 22.2973 13.578 22.3066 13.6154 22.288C15.874 21.7466 18.758 21.868 22.2674 22.652C22.8274 22.7826 23.2194 23.0253 23.4434 23.38C23.6674 23.7346 23.658 24.1173 23.4154 24.528C23.2474 24.8266 23.042 24.9946 22.7994 25.032C22.5567 25.0693 22.09 24.9946 21.3994 24.808C20.1674 24.472 18.6834 24.2946 16.9474 24.276C15.2114 24.2573 14.0447 24.4066 13.4474 24.724C12.9434 24.9853 12.5047 25.0413 12.1314 24.892C11.758 24.7613 11.5154 24.4533 11.4034 23.968C11.3474 23.7066 11.282 23.044 11.2074 21.98C11.1327 20.9346 11.0954 20.2253 11.0954 19.852C11.0954 19.2173 11.2447 18.7413 11.5434 18.424C11.8607 18.088 12.3647 17.8826 13.0554 17.808C13.3914 17.752 13.6247 17.7146 13.7554 17.696C13.9234 17.6586 14.2314 17.6213 14.6794 17.584C18.0954 17.2666 19.8034 16.856 19.8034 16.352C19.8034 16.24 19.6914 16.1653 19.4674 16.128C19.262 16.072 18.842 16.016 18.2074 15.96C16.4714 15.8293 14.7167 16.0626 12.9434 16.66C11.9914 16.996 11.3847 16.856 11.1234 16.24C10.8994 15.7546 10.974 15.3346 11.3474 14.98C11.7394 14.6253 12.4394 14.3266 13.4474 14.084C13.746 14.0093 13.9327 13.9533 14.0074 13.916C14.138 13.8786 14.446 13.832 14.9314 13.776C15.4167 13.72 15.706 13.664 15.7994 13.608C15.8927 13.552 15.9394 13.4026 15.9394 13.16C15.9394 12.88 15.9767 12.516 16.0514 12.068C16.126 11.564 16.1447 11.284 16.1074 11.228C16.0887 11.172 15.8927 11.1626 15.5194 11.2C15.0714 11.2186 14.6887 11.256 14.3714 11.312C13.606 11.4053 12.3554 11.5266 10.6194 11.676C10.022 11.732 9.47136 11.8253 8.96736 11.956C8.35136 12.124 7.89403 12.18 7.59536 12.124C7.29669 12.068 7.07269 11.8906 6.92336 11.592C6.64336 11.0506 6.76469 10.5933 7.28736 10.22C7.82869 9.84663 8.70603 9.60397 9.91936 9.49197C10.4607 9.43597 10.8994 9.3893 11.2354 9.35197C11.534 9.31463 11.9167 9.28663 12.3834 9.26797C12.85 9.26797 13.1394 9.23064 13.2514 9.15597C13.3634 9.06263 13.5034 8.76397 13.6714 8.25997C13.97 7.27064 14.138 6.46797 14.1754 5.85197C14.2314 5.23597 14.1847 4.55463 14.0354 3.80797C13.9234 3.2853 13.5967 3.04264 13.0554 3.07997C12.514 3.1173 11.6274 3.44397 10.3954 4.05997C9.49936 4.52663 8.83669 4.7413 8.40736 4.70397C7.97803 4.66663 7.74469 4.38663 7.70736 3.86397C7.67003 3.4533 7.78203 3.13597 8.04336 2.91197C8.30469 2.6693 8.92069 2.32397 9.89136 1.87597C12.4487 0.699968 14.2127 0.531968 15.1834 1.37197C15.314 1.48397 15.4074 1.53997 15.4634 1.53997C15.5194 1.5213 15.7154 1.4373 16.0514 1.28797C16.8167 0.933301 17.4234 0.690634 17.8714 0.559967ZM19.4954 2.68797C19.234 2.5573 18.8607 2.54797 18.3754 2.65997C17.89 2.77197 17.4047 2.9773 16.9194 3.27597C16.714 3.40663 16.5927 3.5373 16.5554 3.66797C16.5367 3.77997 16.518 4.28397 16.4994 5.17997C16.462 6.26263 16.406 6.96264 16.3314 7.27997C16.3127 7.39197 16.2287 7.71864 16.0794 8.25997C16.0234 8.59597 16.0047 8.7733 16.0234 8.79197C16.042 8.81063 16.602 8.8013 17.7034 8.76397L19.3834 8.70797L19.4394 8.25997C19.4767 7.92397 19.5234 7.67197 19.5794 7.50397C19.934 6.32797 20.102 5.28264 20.0834 4.36797C20.0834 3.43463 19.8874 2.87463 19.4954 2.68797ZM41.478 0.699969C41.9073 0.513301 42.2807 0.541301 42.598 0.783967C42.9153 1.02663 43.0367 1.37197 42.962 1.81997C42.85 2.45463 42.71 3.49063 42.542 4.92797C42.3927 6.3653 42.3273 7.10263 42.346 7.13997C42.3647 7.1773 42.7473 7.21464 43.494 7.25197C44.334 7.30797 44.9127 7.3733 45.23 7.44797C45.566 7.50397 45.818 7.6253 45.986 7.81197C46.4153 8.2973 46.5273 8.73597 46.322 9.12797C46.1167 9.5013 45.6873 9.65063 45.034 9.57597C44.5673 9.53863 44.0073 9.5293 43.354 9.54797C42.7193 9.54797 42.374 9.56663 42.318 9.60397C42.2807 9.6413 42.262 10.7053 42.262 12.796C42.2807 16.2493 42.2527 18.0786 42.178 18.284C42.1033 18.6013 41.926 18.8626 41.646 19.068C41.3847 19.2546 41.142 19.3106 40.918 19.236C40.4887 19.0866 40.218 18.7973 40.106 18.368C40.0127 17.92 39.938 16.6693 39.882 14.616C39.8447 13.9253 39.798 13.524 39.742 13.412C39.7047 13.2813 39.5553 13.216 39.294 13.216C39.126 13.216 38.7247 13.1693 38.09 13.076C35.7753 12.7026 33.778 12.6746 32.098 12.992C31.7993 13.048 31.566 13.1413 31.398 13.272C31.2487 13.384 31.0993 13.58 30.95 13.86C30.782 14.14 30.614 14.336 30.446 14.448C30.2967 14.56 30.0913 14.5973 29.83 14.56C29.4193 14.5226 29.1393 14.364 28.99 14.084C28.8407 13.804 28.7193 13.2533 28.626 12.432C28.3087 9.6133 28.178 7.55063 28.234 6.24397C28.2527 5.81463 28.2527 5.5533 28.234 5.45997C28.2153 5.36663 28.15 5.26397 28.038 5.15197C27.6833 4.7973 27.5807 4.38663 27.73 3.91997C27.8793 3.4533 28.206 3.15463 28.71 3.02397C29.2327 2.87464 30.6887 2.7813 33.078 2.74397C35.4673 2.70663 36.8487 2.74397 37.222 2.85597C37.6887 3.0053 37.978 3.27597 38.09 3.66797C38.2207 4.05997 38.118 4.42397 37.782 4.75997C37.6513 4.89063 37.4553 4.9653 37.194 4.98397C36.9513 5.00263 36.3167 5.00263 35.29 4.98397C34.2633 4.94663 33.2553 4.94663 32.266 4.98397C31.2953 5.00263 30.7727 5.03997 30.698 5.09597C30.586 5.20797 30.5113 5.65597 30.474 6.43997C30.4367 7.22397 30.446 8.05463 30.502 8.93197C30.5207 9.04397 30.5393 9.1933 30.558 9.37997C30.614 10.1826 30.6513 10.6493 30.67 10.78C30.7073 10.9106 30.782 10.9573 30.894 10.92C30.9127 10.92 30.9313 10.92 30.95 10.92C31.1367 10.9013 31.454 10.836 31.902 10.724C32.8167 10.5186 34.002 10.4346 35.458 10.472C36.9327 10.5093 38.286 10.6586 39.518 10.92C39.686 10.9573 39.7887 10.892 39.826 10.724C39.882 10.5373 39.938 10.024 39.994 9.18397C40.1247 6.71997 40.2367 5.09597 40.33 4.31197C40.4607 2.98663 40.6007 2.09063 40.75 1.62397C40.8993 1.1573 41.142 0.849301 41.478 0.699969ZM33.526 15.708C33.974 15.5213 34.366 15.596 34.702 15.932C35.038 16.268 35.1407 16.7066 35.01 17.248C34.954 17.4906 34.926 18.1533 34.926 19.236C34.926 20.3 34.954 20.9253 35.01 21.112C35.0473 21.224 35.0847 21.2893 35.122 21.308C35.1593 21.3266 35.2433 21.3266 35.374 21.308C35.878 21.2706 36.5873 21.2613 37.502 21.28C38.4167 21.2986 39.0793 21.336 39.49 21.392C39.714 21.4293 40.1713 21.4946 40.862 21.588C43.0087 21.868 44.11 22.3906 44.166 23.156C44.2033 23.4173 44.1007 23.688 43.858 23.968C43.6527 24.192 43.4193 24.304 43.158 24.304C42.9153 24.3226 42.2993 24.2293 41.31 24.024C39.1073 23.5946 37.4553 23.436 36.354 23.548C35.9247 23.5853 35.6447 23.632 35.514 23.688C35.402 23.744 35.2993 23.8653 35.206 24.052C35.094 24.2946 34.898 24.4813 34.618 24.612C34.338 24.7426 34.0673 24.78 33.806 24.724C33.47 24.612 33.2367 24.4346 33.106 24.192C32.9753 23.9493 32.882 23.4733 32.826 22.764C32.7887 22.2226 32.7327 21.56 32.658 20.776C32.5087 19.32 32.546 17.9946 32.77 16.8C32.826 16.576 32.9193 16.3613 33.05 16.156C33.1993 15.932 33.358 15.7826 33.526 15.708ZM62.6884 0.363968C63.1178 0.270635 63.4724 0.298635 63.7524 0.447968C64.0511 0.597301 64.2191 0.802634 64.2564 1.06397C64.2938 1.30663 64.2564 1.9133 64.1444 2.88397C63.8271 5.53463 63.6218 8.53063 63.5284 11.872C63.4351 15.2133 63.4724 18.4333 63.6404 21.532C63.7151 22.8946 63.7151 23.772 63.6404 24.164C63.5658 24.5746 63.3604 24.864 63.0244 25.032C62.6511 25.2 62.2871 25.1906 61.9324 25.004C61.6338 24.8546 61.4564 24.6866 61.4004 24.5C61.3444 24.3133 61.3164 23.8 61.3164 22.96C61.2978 21.7466 61.2604 20.748 61.2044 19.964C61.1671 18.8253 61.1484 18.0693 61.1484 17.696C61.1484 17.2293 61.1298 16.828 61.0924 16.492C61.0738 16.268 61.0551 16.1466 61.0364 16.128C61.0178 16.1093 60.9618 16.1653 60.8684 16.296C60.5698 16.7626 60.1871 16.9213 59.7204 16.772C59.2724 16.604 58.6938 16.1186 57.9844 15.316C57.8724 15.1853 57.7138 15.008 57.5084 14.784C57.3031 14.5413 57.1164 14.336 56.9484 14.168C56.7991 14 56.6871 13.8693 56.6124 13.776C56.2951 13.44 55.9591 13.0386 55.6044 12.572C55.5484 12.516 55.4831 12.4413 55.4084 12.348C55.0724 11.9186 54.8578 11.6853 54.7644 11.648C54.6898 11.6106 54.5778 11.6946 54.4284 11.9C54.3911 11.956 54.3631 11.9933 54.3444 12.012C54.1578 12.2733 53.5231 12.964 52.4404 14.084C51.3578 15.204 50.7418 15.8106 50.5924 15.904C50.2191 16.128 49.8551 16.156 49.5004 15.988C49.1458 15.8013 48.9498 15.484 48.9124 15.036C48.8751 14.756 48.9404 14.4946 49.1084 14.252C49.2951 14.0093 49.7431 13.5146 50.4524 12.768C51.7218 11.48 52.5618 10.556 52.9724 9.99597C53.1778 9.73463 53.4951 9.3333 53.9244 8.79197C55.3244 7.0373 55.8938 5.96397 55.6324 5.57197C55.5951 5.51597 55.5484 5.47863 55.4924 5.45997C54.9324 5.29197 54.0924 5.43197 52.9724 5.87997C51.8524 6.32797 50.9844 6.8693 50.3684 7.50397C49.8644 8.00797 49.4631 8.27863 49.1644 8.31597C48.8658 8.3533 48.5764 8.16663 48.2964 7.75597C47.8484 7.02797 48.0164 6.31864 48.8004 5.62797C49.9951 4.56397 51.4604 3.80797 53.1964 3.35997C54.9324 2.91197 56.2484 2.95863 57.1444 3.49997C57.8724 3.9293 58.2178 4.55463 58.1804 5.37597C58.1618 6.1973 57.7604 7.2613 56.9764 8.56797C56.5844 9.20264 56.3884 9.5573 56.3884 9.63197C56.3884 9.81863 56.8178 10.4066 57.6764 11.396C58.1058 11.8813 58.4231 12.2546 58.6284 12.516C58.9084 12.8706 59.2631 13.2626 59.6924 13.692C60.1778 14.196 60.5231 14.588 60.7284 14.868C60.9151 15.1666 61.0271 15.26 61.0644 15.148C61.1018 15.0546 61.1204 14.7186 61.1204 14.14C61.1391 13.4493 61.1858 12.2733 61.2604 10.612C61.3351 8.93197 61.3911 7.9333 61.4284 7.61597C61.4844 7.2053 61.5218 6.73863 61.5404 6.21597C61.6524 4.16263 61.8018 2.57597 61.9884 1.45597C62.1004 0.783968 62.3338 0.419968 62.6884 0.363968Z" fill="black"/>
</svg>
