<svg width="100" height="100" viewBox="0 0 100 100" fill="none" xmlns="http://www.w3.org/2000/svg">
<path d="M86 9.47512C86 19.9304 69.6982 18.9502 50 18.9502C30.3018 18.9502 14 20.2571 14 9.47507C14 -0.980185 30.3333 0.32686 50 0C69.6667 0.326728 86 -0.980128 86 9.47512Z" fill="#FBE200"/>
<path d="M17.5676 25.1136C28.6284 17.7208 36.8543 17.9657 50 18.0121C62.8863 18.0577 71.9715 17.9982 82.4324 25.1136C93.6295 32.7296 100 42.2214 100 54.8101C100 67.3988 97.6233 73.873 90.5405 83.8609C81.0654 97.2225 66.8919 100 50 100C32.6243 100 19.6453 97.311 9.45947 83.8609C1.97498 73.9779 -4.93349e-06 66.7535 0 54.8101C5.22733e-06 42.1553 6.14034 32.7513 17.5676 25.1136Z" fill="#FBE200"/>
<path d="M5.57114 31.4237C0.0500722 26.8368 10.3849 20.9873 16.4264 17C27.2817 18.2542 51.0277 18.2542 51.0277 18.2542C51.0277 18.2542 72.7383 18.2542 85.629 17C91.6705 20.9873 99.0239 24.976 96.4843 31.4237C93.4808 39.0493 82.34 26.7534 74.0952 29.5424C68.0721 31.5799 66.6322 38.9492 61.2046 38.9492C55.777 38.9492 54.7592 35.5 51.0277 32.678C47.5417 30.0415 42.8023 29.8526 39.494 32.678C37.398 34.4679 37.1193 36.4407 36.7801 38.9492C36.1016 43.9661 37.5259 47.6542 34.0663 51.4915C32.3701 53.3729 30.5697 54 27.9602 54C25.3507 54 23.5502 53.3729 21.8541 51.4915C18.3946 47.6541 19.8187 43.9661 19.1403 38.9492C18.801 36.4407 18.4667 34.5222 16.4264 32.678C13.3719 29.917 8.74855 34.0635 5.57114 31.4237Z" fill="#FBE200" stroke="white" stroke-width="6" stroke-linejoin="round"/>
</svg>
