<svg width="29" height="29" viewBox="0 0 29 29" fill="none" xmlns="http://www.w3.org/2000/svg">
<path d="M14.4952 2.71875C7.49162 2.71875 1.8125 7.22442 1.8125 12.7846C1.8125 16.3796 4.18515 19.5287 7.75842 21.3166L6.47205 25.9421C6.47205 25.9421 6.44822 26.1578 6.58639 26.2393C6.72456 26.3208 6.89132 26.2585 6.89132 26.2585C7.29152 26.201 11.5127 23.2148 12.2512 22.697C12.9801 22.8025 13.7377 22.8553 14.5048 22.8553C21.5084 22.8553 27.1875 18.3496 27.1875 12.7894C27.1875 7.22921 21.4989 2.71875 14.4952 2.71875Z" fill="black"/>
<path d="M7.48244 16.2922C7.07746 16.2922 6.74873 15.9758 6.74873 15.5876V11.2113H5.60528C5.20983 11.2113 4.89062 10.8902 4.89062 10.4924C4.89062 10.0945 5.2146 9.77336 5.60528 9.77336H9.35481C9.7503 9.77336 10.0695 10.0945 10.0695 10.4924C10.0695 10.8902 9.7455 11.2113 9.35481 11.2113H8.21138V15.5876C8.21138 15.971 7.87788 16.2922 7.47767 16.2922H7.48244ZM13.9 16.2826C13.5952 16.2826 13.3616 16.158 13.2902 15.9567L12.9281 14.998H10.6984L10.3363 15.9567C10.2648 16.158 10.0313 16.2826 9.72646 16.2826C9.56443 16.2826 9.40719 16.2491 9.25957 16.1867C9.05944 16.0909 8.8641 15.8368 9.08801 15.1418L10.8365 10.5067C10.9604 10.152 11.3368 9.78777 11.8132 9.77816C12.2897 9.76855 12.6708 10.152 12.79 10.5067L14.5385 15.1418C14.7624 15.8368 14.567 16.1004 14.3669 16.1867C14.224 16.2539 14.0621 16.2826 13.9 16.2826ZM12.5422 13.6942L11.8132 11.6043L11.0843 13.6942H12.5422ZM15.7152 16.1867C15.3341 16.1867 15.0149 15.8847 15.0149 15.5157V10.5067C15.0149 10.0993 15.3484 9.76855 15.7629 9.76855C16.1774 9.76855 16.5109 10.1041 16.5109 10.5067V14.8302H18.0641C18.4452 14.8302 18.7644 15.1322 18.7644 15.5013C18.7644 15.8704 18.45 16.1724 18.0641 16.1724L15.7152 16.1867ZM19.0455 15.5444V10.5115C19.0455 10.1041 19.379 9.77336 19.7792 9.77336C20.1794 9.77336 20.5129 10.1089 20.5129 10.5115V12.0933L22.5617 10.0322C22.7872 9.80535 23.2135 9.8252 23.4716 10.0849C23.7142 10.3289 23.7771 10.7412 23.524 11.0004L21.847 12.6781L23.6479 15.0747C23.8899 15.3863 23.8312 15.8717 23.505 16.1004C23.1834 16.3401 22.7109 16.2602 22.4807 15.9567L20.7655 13.6703L20.5129 13.9243V15.53C20.5129 16.4865 19.0455 16.5234 19.0455 15.5444Z" fill="#FDFDFD"/>
</svg>
