<svg width="24" height="24" viewBox="0 0 24 24" fill="none" xmlns="http://www.w3.org/2000/svg">
<path d="M9.91666 7.07615C10.0902 7.25318 10.1875 7.49123 10.1875 7.73915C10.1875 7.98708 10.0902 8.22512 9.91666 8.40215L8.40166 9.91715C8.22463 10.0907 7.98659 10.188 7.73866 10.188C7.49073 10.188 7.25269 10.0907 7.07566 9.91715L4.52766 7.37015C4.03266 6.87615 3.20066 7.03715 3.08166 7.72615C2.92617 8.62791 2.99076 9.55387 3.26996 10.4253C3.54915 11.2967 4.03468 12.0878 4.68525 12.7313C5.33582 13.3748 6.13219 13.8517 7.00661 14.1214C7.88104 14.391 8.80766 14.4455 9.70766 14.2802C10.5277 14.1302 11.4147 14.2582 12.0037 14.8462L17.5697 20.4132C17.7549 20.6059 17.9767 20.7598 18.2221 20.8658C18.4675 20.9718 18.7317 21.0278 18.999 21.0305C19.2663 21.0332 19.5315 20.9825 19.779 20.8814C20.0265 20.7803 20.2513 20.6309 20.4404 20.4419C20.6294 20.2528 20.7789 20.028 20.8799 19.7805C20.981 19.533 21.0317 19.2678 21.029 19.0005C21.0263 18.7332 20.9703 18.469 20.8643 18.2236C20.7583 17.9782 20.6044 17.7564 20.4117 17.5712L14.8447 12.0052C14.2567 11.4162 14.1287 10.5282 14.2787 9.70915C14.4435 8.80923 14.3887 7.88281 14.1189 7.00861C13.849 6.1344 13.3722 5.33825 12.7288 4.6878C12.0854 4.03734 11.2945 3.55181 10.4233 3.27244C9.55209 2.99308 8.62633 2.92814 7.72466 3.08315C7.03566 3.20315 6.87466 4.03415 7.36866 4.52915L9.91666 7.07615Z" stroke="black" stroke-width="1.5" stroke-linecap="round" stroke-linejoin="round"/>
</svg>
