<svg width="24" height="24" viewBox="0 0 24 24" fill="none" xmlns="http://www.w3.org/2000/svg">
<path d="M13 18.9304C12.6267 19.2584 12.2526 19.5619 11.8776 19.8408C11.7399 19.9441 11.5723 20 11.4 20C11.2278 20 11.0602 19.9441 10.9224 19.8408C6.80245 16.78 2.42805 10.4864 6.84805 5.9392C7.4382 5.32751 8.14524 4.84065 8.9272 4.50753C9.70916 4.17441 10.5501 4.00181 11.4 4C13.1072 4 14.744 4.6976 15.9512 5.9392C17.2872 7.312 17.82 8.8448 17.8 10.4" stroke="#262627" stroke-width="1.5" stroke-linecap="round" stroke-linejoin="round"/>
<path d="M11.3998 11.9998C11.8242 11.9998 12.2311 11.8312 12.5312 11.5312C12.8312 11.2311 12.9998 10.8242 12.9998 10.3998C12.9998 9.97546 12.8312 9.56849 12.5312 9.26843C12.2311 8.96838 11.8242 8.7998 11.3998 8.7998C10.9755 8.7998 10.5685 8.96838 10.2684 9.26843C9.96838 9.56849 9.7998 9.97546 9.7998 10.3998C9.7998 10.8242 9.96838 11.2311 10.2684 11.5312C10.5685 11.8312 10.9755 11.9998 11.3998 11.9998ZM14.0462 15.7398C13.9808 15.8097 13.9299 15.8921 13.8967 15.9819C13.8634 16.0717 13.8484 16.1673 13.8526 16.263L13.8902 17.287L14.9206 17.2486C15.0163 17.2456 15.1105 17.2235 15.1976 17.1837C15.2847 17.1439 15.3629 17.0871 15.4278 17.0166L18.3534 13.8646C18.4187 13.7945 18.4695 13.7122 18.5029 13.6224C18.5363 13.5326 18.5516 13.4372 18.5481 13.3414C18.5445 13.2457 18.5221 13.1516 18.4821 13.0646C18.4421 12.9776 18.3853 12.8993 18.315 12.8342L18.0038 12.5454C17.9337 12.4801 17.8515 12.4292 17.7617 12.3958C17.672 12.3623 17.5765 12.3469 17.4808 12.3504C17.3851 12.3538 17.291 12.3762 17.2039 12.4161C17.1168 12.456 17.0385 12.5128 16.9734 12.583L14.0462 15.7398Z" stroke="#262627" stroke-width="1.5" stroke-linecap="round" stroke-linejoin="round"/>
</svg>
