<svg width="390" height="396" viewBox="0 0 390 396" fill="none" xmlns="http://www.w3.org/2000/svg">
<g filter="url(#filter0_d_980_523)">
<rect x="90" width="358" height="108" rx="12" fill="#F7F8F9"/>
</g>
<g filter="url(#filter1_d_980_523)">
<rect x="-38" y="280" width="358" height="108" rx="12" fill="#F7F8F9"/>
</g>
<path d="M111.766 21.1172V24.8672H104.535V21.1172H111.766ZM105.637 21.9961V23.9648H110.676V21.9961H105.637ZM111.766 14.9648V15.832C111.754 16.6641 111.754 17.5195 111.484 18.5977L110.371 18.4922C110.652 17.4199 110.652 16.6582 110.652 15.8438H104.512V14.9648H111.766ZM112.949 19.1602V20.0508H103.398V19.1602H107.23V17.2031H108.32V19.1602H112.949ZM122.149 21.1172V24.8672H114.918V21.1172H122.149ZM116.02 21.9961V23.9648H121.059V21.9961H116.02ZM122.149 14.9648V15.832C122.137 16.6641 122.137 17.5195 121.867 18.5977L120.754 18.4922C121.035 17.4199 121.035 16.6582 121.035 15.8438H114.895V14.9648H122.149ZM123.332 19.1602V20.0508H113.782V19.1602H117.614V17.2031H118.703V19.1602H123.332ZM132.848 14.4961V25.0195H131.735V14.4961H132.848ZM127.235 15.2812C128.794 15.2812 129.942 16.7109 129.942 18.9609C129.942 21.2227 128.794 22.6523 127.235 22.6523C125.653 22.6523 124.516 21.2227 124.516 18.9609C124.516 16.7109 125.653 15.2812 127.235 15.2812ZM127.235 16.2773C126.262 16.2773 125.594 17.3086 125.594 18.9609C125.594 20.625 126.262 21.6562 127.235 21.6562C128.196 21.6562 128.864 20.625 128.864 18.9609C128.864 17.3086 128.196 16.2773 127.235 16.2773ZM137.958 15.2461C139.622 15.2344 140.806 16.2656 140.817 17.7422C140.806 19.2188 139.622 20.25 137.958 20.25C136.306 20.25 135.087 19.2188 135.098 17.7422C135.087 16.2656 136.306 15.2344 137.958 15.2461ZM137.958 16.207C136.938 16.207 136.188 16.8164 136.2 17.7422C136.188 18.668 136.938 19.2773 137.958 19.2773C138.977 19.2773 139.727 18.668 139.727 17.7422C139.727 16.8164 138.977 16.207 137.958 16.207ZM143.22 14.4961V25.0195H142.106V14.4961H143.22ZM134.595 21.832C136.505 21.832 139.153 21.8086 141.45 21.4805L141.532 22.2891C139.153 22.7461 136.61 22.7578 134.735 22.7578L134.595 21.832ZM156.04 14.4961V18.6797H157.669V19.6055H156.04V24.9844H154.927V14.4961H156.04ZM153.298 15.5977C153.287 18.6328 151.951 21.3398 148.494 23.0508L147.873 22.1836C150.503 20.8711 151.933 18.9727 152.162 16.5234H148.4V15.5977H153.298ZM163.81 15.1875C163.81 15.5859 163.769 15.9609 163.693 16.3242H165.884V14.5078H166.998V20.7539H165.884V19.4414H163.236V18.5391H165.884V17.2148H163.412C162.703 18.8613 161.092 20.0391 158.818 20.6484L158.396 19.7695C160.892 19.0957 162.41 17.7598 162.615 16.0898H158.947V15.1875H163.81ZM166.998 21.2109V24.9727H165.884V22.0898H159.884V21.2109H166.998ZM179.748 14.4961V18.6797H181.377V19.6055H179.748V24.9844H178.635V14.4961H179.748ZM177.006 15.5977C176.994 18.6328 175.659 21.3398 172.201 23.0508L171.58 22.1836C174.211 20.8711 175.641 18.9727 175.869 16.5234H172.108V15.5977H177.006ZM190.647 14.4961V25.0195H189.534V14.4961H190.647ZM185.034 15.2812C186.592 15.2812 187.741 16.7109 187.741 18.9609C187.741 21.2227 186.592 22.6523 185.034 22.6523C183.452 22.6523 182.315 21.2227 182.315 18.9609C182.315 16.7109 183.452 15.2812 185.034 15.2812ZM185.034 16.2773C184.061 16.2773 183.393 17.3086 183.393 18.9609C183.393 20.625 184.061 21.6562 185.034 21.6562C185.995 21.6562 186.663 20.625 186.663 18.9609C186.663 17.3086 185.995 16.2773 185.034 16.2773ZM200.843 19.4766V20.3906H193.53V15.4336H200.749V16.3477H194.632V19.4766H200.843ZM201.944 22.6875V23.6133H192.335V22.6875H201.944Z" fill="#262627"/>
<path d="M-17.2344 301.117V304.867H-24.4648V301.117H-17.2344ZM-23.3633 301.996V303.965H-18.3242V301.996H-23.3633ZM-17.2344 294.965V295.832C-17.2461 296.664 -17.2461 297.52 -17.5156 298.598L-18.6289 298.492C-18.3477 297.42 -18.3477 296.658 -18.3477 295.844H-24.4883V294.965H-17.2344ZM-16.0508 299.16V300.051H-25.6016V299.16H-21.7695V297.203H-20.6797V299.16H-16.0508ZM-6.85128 301.117V304.867H-14.0817V301.117H-6.85128ZM-12.9802 301.996V303.965H-7.94112V301.996H-12.9802ZM-6.85128 294.965V295.832C-6.863 296.664 -6.863 297.52 -7.13253 298.598L-8.24581 298.492C-7.96456 297.42 -7.96456 296.658 -7.96456 295.844H-14.1052V294.965H-6.85128ZM-5.66769 299.16V300.051H-15.2185V299.16H-11.3864V297.203H-10.2966V299.16H-5.66769ZM3.84822 294.496V305.02H2.73494V294.496H3.84822ZM-1.76506 295.281C-0.206469 295.281 0.941969 296.711 0.941969 298.961C0.941969 301.223 -0.206469 302.652 -1.76506 302.652C-3.34709 302.652 -4.48381 301.223 -4.48381 298.961C-4.48381 296.711 -3.34709 295.281 -1.76506 295.281ZM-1.76506 296.277C-2.73772 296.277 -3.40569 297.309 -3.40569 298.961C-3.40569 300.625 -2.73772 301.656 -1.76506 301.656C-0.804125 301.656 -0.136156 300.625 -0.136156 298.961C-0.136156 297.309 -0.804125 296.277 -1.76506 296.277ZM8.95787 295.246C10.6219 295.234 11.8055 296.266 11.8172 297.742C11.8055 299.219 10.6219 300.25 8.95787 300.25C7.30553 300.25 6.08678 299.219 6.0985 297.742C6.08678 296.266 7.30553 295.234 8.95787 295.246ZM8.95787 296.207C7.93834 296.207 7.18834 296.816 7.20006 297.742C7.18834 298.668 7.93834 299.277 8.95787 299.277C9.97741 299.277 10.7274 298.668 10.7274 297.742C10.7274 296.816 9.97741 296.207 8.95787 296.207ZM14.2196 294.496V305.02H13.1063V294.496H14.2196ZM5.59459 301.832C7.50475 301.832 10.1532 301.809 12.4501 301.48L12.5321 302.289C10.1532 302.746 7.61022 302.758 5.73522 302.758L5.59459 301.832ZM27.0405 294.496V298.68H28.6694V299.605H27.0405V304.984H25.9272V294.496H27.0405ZM24.2983 295.598C24.2866 298.633 22.9506 301.34 19.4936 303.051L18.8725 302.184C21.5034 300.871 22.933 298.973 23.1616 296.523H19.3998V295.598H24.2983ZM34.8103 295.188C34.8103 295.586 34.7693 295.961 34.6931 296.324H36.8845V294.508H37.9978V300.754H36.8845V299.441H34.2361V298.539H36.8845V297.215H34.4118C33.7029 298.861 32.0915 300.039 29.8181 300.648L29.3962 299.77C31.8923 299.096 33.4099 297.76 33.615 296.09H29.947V295.188H34.8103ZM37.9978 301.211V304.973H36.8845V302.09H30.8845V301.211H37.9978ZM50.7483 294.496V298.68H52.3773V299.605H50.7483V304.984H49.6351V294.496H50.7483ZM48.0062 295.598C47.9944 298.633 46.6585 301.34 43.2015 303.051L42.5804 302.184C45.2112 300.871 46.6409 298.973 46.8694 296.523H43.1077V295.598H48.0062ZM61.6471 294.496V305.02H60.5338V294.496H61.6471ZM56.0338 295.281C57.5924 295.281 58.7408 296.711 58.7408 298.961C58.7408 301.223 57.5924 302.652 56.0338 302.652C54.4518 302.652 53.315 301.223 53.315 298.961C53.315 296.711 54.4518 295.281 56.0338 295.281ZM56.0338 296.277C55.0611 296.277 54.3932 297.309 54.3932 298.961C54.3932 300.625 55.0611 301.656 56.0338 301.656C56.9947 301.656 57.6627 300.625 57.6627 298.961C57.6627 297.309 56.9947 296.277 56.0338 296.277ZM71.8427 299.477V300.391H64.5302V295.434H71.7489V296.348H65.6317V299.477H71.8427ZM72.9442 302.688V303.613H63.3348V302.688H72.9442Z" fill="#262627"/>
<path d="M113.787 33.8164V46.2852H112.023V33.8164H113.787ZM107.033 34.6914C108.906 34.6914 110.301 36.4141 110.301 39.1211C110.301 41.8555 108.906 43.5645 107.033 43.5645C105.119 43.5645 103.725 41.8555 103.738 39.1211C103.725 36.4141 105.119 34.6914 107.033 34.6914ZM107.033 36.2637C106.062 36.2637 105.42 37.2754 105.42 39.1211C105.42 40.9805 106.062 41.9785 107.033 41.9785C107.977 41.9785 108.619 40.9805 108.619 39.1211C108.619 37.2754 107.977 36.2637 107.033 36.2637ZM128.512 33.8164V38.5879H130.275V40.0234H128.512V46.2305H126.762V33.8164H128.512ZM125.189 35.0879C125.176 38.8066 123.727 42.0332 119.543 44.084L118.559 42.7441C121.505 41.2676 123.084 39.2852 123.412 36.5098H119.27V35.0879H125.189ZM137.453 34.5957C137.453 35.0264 137.419 35.4434 137.357 35.8398H139.545V33.8301H141.281V41.2129H139.545V39.8594H136.715V38.4648H139.545V37.207H136.947C136.106 39.1348 134.268 40.4883 131.588 41.1992L130.932 39.8047C133.734 39.0869 135.307 37.6924 135.58 36.0039H131.643V34.5957H137.453ZM141.281 41.7188V46.2305H139.545V43.0859H132.736V41.7188H141.281ZM154.242 40.1738V41.5684H142.895V40.1738H154.242ZM152.957 44.6445V46.0391H144.262V42.4023H146.012V44.6445H152.957ZM148.568 34.1992C151.289 34.1855 153.08 35.1562 153.094 36.7422C153.08 38.3281 151.289 39.3125 148.568 39.3125C145.82 39.3125 144.029 38.3281 144.029 36.7422C144.029 35.1562 145.82 34.1855 148.568 34.1992ZM148.568 35.5664C146.846 35.5801 145.834 35.9902 145.848 36.7422C145.834 37.5215 146.846 37.9043 148.568 37.9043C150.291 37.9043 151.289 37.5215 151.289 36.7422C151.289 35.9902 150.291 35.5801 148.568 35.5664ZM222.943 33.8164V37.3848H224.625V38.834H222.943V42.8809H221.193V33.8164H222.943ZM223.395 44.6445V46.0391H214.877V41.9238H216.613V44.6445H223.395ZM216.572 34.623C218.473 34.623 219.963 35.9355 219.963 37.7812C219.963 39.5996 218.473 40.9395 216.572 40.9395C214.658 40.9395 213.154 39.5996 213.154 37.7812C213.154 35.9355 214.658 34.623 216.572 34.623ZM216.572 36.1406C215.629 36.127 214.863 36.7422 214.877 37.7812C214.863 38.793 215.629 39.4219 216.572 39.4219C217.529 39.4219 218.254 38.793 218.268 37.7812C218.254 36.7422 217.529 36.127 216.572 36.1406ZM235.959 33.8164V46.2578H234.291V33.8164H235.959ZM233.361 33.9941V45.6836H231.721V39.8047H230.723C230.559 42.252 229.52 43.7285 227.988 43.7285C226.348 43.7285 225.281 42.0059 225.281 39.2031C225.281 36.4141 226.348 34.7051 227.988 34.7051C229.485 34.7051 230.511 36.0996 230.709 38.4238H231.721V33.9941H233.361ZM227.988 36.3457C227.291 36.3457 226.881 37.3027 226.895 39.2031C226.881 41.1172 227.291 42.0605 227.988 42.0469C228.699 42.0605 229.123 41.1172 229.123 39.2031C229.123 37.3027 228.699 36.3457 227.988 36.3457ZM245.023 41.8008C245.023 42.8057 245.44 43.8379 246.459 44.5215C247.484 43.7969 247.936 42.7236 247.936 41.8008V41.377H249.658V41.8008C249.645 43.0996 250.342 44.3027 251.996 44.8086L251.148 46.0801C249.959 45.6768 249.18 44.918 248.756 43.9609C248.339 44.918 247.614 45.752 246.5 46.1895C245.324 45.7656 244.593 44.959 244.189 44.002C243.752 44.9316 242.986 45.6836 241.852 46.0801L240.99 44.8086C242.631 44.248 243.314 43.0176 243.328 41.8008V41.377H245.023V41.8008ZM250.916 33.8301V40.8574H249.166V33.8301H250.916ZM244.094 34.459C246.035 34.459 247.498 35.6895 247.498 37.4531C247.498 39.1895 246.035 40.4199 244.094 40.4199C242.152 40.4199 240.689 39.1895 240.689 37.4531C240.689 35.6895 242.152 34.459 244.094 34.459ZM244.094 35.9219C243.096 35.9219 242.385 36.4961 242.398 37.4531C242.385 38.3965 243.096 38.9707 244.094 38.9707C245.064 38.9707 245.775 38.3965 245.775 37.4531C245.775 36.4961 245.064 35.9219 244.094 35.9219ZM256.029 34.6914C257.711 34.6914 258.962 36.0791 259.215 38.3145H261.375V33.8164H263.098V46.2852H261.375V39.709H259.229C259.044 42.1016 257.766 43.5645 256.029 43.5645C254.143 43.5645 252.789 41.8555 252.803 39.1211C252.789 36.4141 254.143 34.6914 256.029 34.6914ZM256.029 36.2637C255.1 36.2637 254.457 37.2754 254.471 39.1211C254.457 40.9805 255.1 41.9785 256.029 41.9785C256.973 41.9785 257.588 40.9805 257.588 39.1211C257.588 37.2754 256.973 36.2637 256.029 36.2637ZM276.086 43.373V44.8086H264.697V43.373H267.24V40.3242C266.276 39.75 265.695 38.8682 265.695 37.7676C265.695 35.7578 267.664 34.418 270.371 34.418C273.064 34.418 275.047 35.7578 275.061 37.7676C275.054 38.8408 274.486 39.7158 273.557 40.2969V43.373H276.086ZM270.371 35.7988C268.594 35.7988 267.418 36.5098 267.418 37.7676C267.418 38.9844 268.594 39.7363 270.371 39.7363C272.135 39.7363 273.324 38.9844 273.338 37.7676C273.324 36.5098 272.135 35.7988 270.371 35.7988ZM268.963 43.373H271.793V40.9531C271.349 41.042 270.87 41.0898 270.371 41.0898C269.872 41.0898 269.4 41.0488 268.963 40.9531V43.373ZM281.719 41.5547C281.24 41.5547 280.83 41.1582 280.844 40.666C280.83 40.1875 281.24 39.791 281.719 39.791C282.197 39.791 282.594 40.1875 282.594 40.666C282.594 41.1582 282.197 41.5547 281.719 41.5547ZM298.617 40.8848V41.7734H295.678V46.1074H294.598V41.7734H291.48V46.1074H290.373V41.7734H287.488V40.8848H298.617ZM293.025 34.4453C295.582 34.4453 297.305 35.4707 297.305 37.0977C297.305 38.7109 295.582 39.7363 293.025 39.7227C290.469 39.7363 288.746 38.7109 288.746 37.0977C288.746 35.4707 290.469 34.4453 293.025 34.4453ZM293.025 35.3203C291.125 35.3203 289.84 36.0176 289.854 37.0977C289.84 38.1777 291.125 38.8613 293.025 38.8613C294.912 38.8613 296.211 38.1777 296.211 37.0977C296.211 36.0176 294.912 35.3203 293.025 35.3203ZM303.676 37.2207C303.676 39.3672 305.098 41.5684 306.82 42.416L306.164 43.2773C304.824 42.5732 303.703 41.1377 303.17 39.4492C302.623 41.2471 301.475 42.7783 300.107 43.5098L299.424 42.6484C301.201 41.7734 302.609 39.4355 302.623 37.2207V35.0059H303.676V37.2207ZM309.008 33.9531V38.8887H311.045V39.8184H309.008V46.1074H307.941V33.9531H309.008ZM319.275 35.9219C319.275 37.5762 320.533 39.0938 322.297 39.6953L321.709 40.543C320.362 40.0508 319.303 39.0459 318.77 37.7812C318.25 39.21 317.17 40.3379 315.748 40.8848L315.174 40.0234C316.992 39.3398 318.209 37.7129 318.223 35.8398V34.582H319.275V35.9219ZM324.717 33.9531V37.125H326.549V38.0273H324.717V41.3496H323.65V33.9531H324.717ZM320.82 41.6641C323.322 41.6641 324.826 42.4707 324.826 43.8652C324.826 45.2871 323.322 46.0801 320.82 46.0801C318.318 46.0801 316.787 45.2871 316.787 43.8652C316.787 42.4707 318.318 41.6641 320.82 41.6641ZM320.82 42.5254C318.988 42.5254 317.854 43.0312 317.867 43.8652C317.854 44.7266 318.988 45.2188 320.82 45.2324C322.666 45.2188 323.787 44.7266 323.787 43.8652C323.787 43.0312 322.666 42.5254 320.82 42.5254ZM338.389 39.832V40.7207H333.371V42.1562H337.035V45.9434H328.668V42.1562H332.318V40.7207H327.314V39.832H338.389ZM337.336 34.3496V35.2383H335.463V37.7949H337.295V38.6836H328.395V37.7949H330.227V35.2383H328.354V34.3496H337.336ZM329.734 43.0039V45.0684H335.982V43.0039H329.734ZM331.293 37.7949H334.396V35.2383H331.293V37.7949ZM346.592 45.1367C344.801 45.1367 343.447 44.0293 343.379 42.5117H344.568C344.664 43.4004 345.525 44.0566 346.592 44.0566C347.877 44.0566 348.807 43.1133 348.807 41.8691C348.807 40.584 347.836 39.6406 346.51 39.627C345.676 39.6133 345.033 39.873 344.664 40.5156H343.475L344.172 35.1016H349.531V36.1953H345.197L344.828 39.0938H344.924C345.361 38.752 346.031 38.5195 346.729 38.5195C348.615 38.5195 350.01 39.9141 350.01 41.8418C350.01 43.7559 348.561 45.1367 346.592 45.1367ZM361.357 33.9668V42.9492H360.277V38.6152H357.584V37.7129H360.277V33.9668H361.357ZM357.639 34.8965C357.625 38.0137 355.396 40.3926 351.938 41.5273L351.473 40.666C354.275 39.7432 356.224 38 356.463 35.7988H352.088V34.8965H357.639ZM361.672 44.9453V45.8477H353.619V42.0332H354.713V44.9453H361.672ZM376.943 33.9531V46.1074H375.863V33.9531H376.943ZM373.348 35.2793C373.334 38.7793 371.707 41.8691 367.633 43.8242L367.045 42.9492C370.333 41.3906 372.008 39.0596 372.254 36.1543H367.605V35.2793H373.348ZM385.229 35.4707C385.215 36.9609 387.266 38.1777 389.412 38.4785L388.988 39.3262C387.026 39.0459 385.194 38.0615 384.531 36.6328C383.875 38.0615 382.05 39.0459 380.074 39.3262L379.678 38.4785C381.824 38.1777 383.834 36.9609 383.834 35.4707V35.4434H380.006V34.5684H389.084V35.4434H385.229V35.4707ZM390.109 40.2148V41.1035H385.16V43.5918H384.094V41.1035H378.98V40.2148H390.109ZM388.865 44.9453V45.8477H380.402V42.375H381.482V44.9453H388.865Z" fill="#262627"/>
<path d="M168.734 33.8164V46.2852H166.984V39.5723H164.756V38.1504H166.984V33.8164H168.734ZM162.924 36.9336C162.924 39.1211 163.922 41.4043 166.027 42.3066L165.002 43.6875C163.56 43.0107 162.582 41.7051 162.049 40.1191C161.509 41.8145 160.518 43.2295 159.068 43.9473L158.029 42.5664C160.121 41.6094 161.133 39.2441 161.133 36.9336V36.4141H158.549V35.0195H165.508V36.4141H162.924V36.9336ZM180.137 33.8164V38.5879H181.9V40.0234H180.137V46.2305H178.387V33.8164H180.137ZM176.814 35.0879C176.801 38.8066 175.352 42.0332 171.168 44.084L170.184 42.7441C173.13 41.2676 174.709 39.2852 175.037 36.5098H170.895V35.0879H176.814ZM187.93 34.5273V36.1816H190.377V34.5273H192.1V36.7695H194.396V33.8164H196.133V41.0215H194.396V38.1914H192.1V40.4883H186.18V34.5273H187.93ZM187.93 39.0938H190.377V37.5352H187.93V39.0938ZM196.133 41.5137V46.1211H187.766V41.5137H196.133ZM189.516 42.9082V44.7266H194.424V42.9082H189.516ZM201.807 34.3359C203.707 34.3223 205.088 35.4023 205.088 36.9746C205.088 38.5332 203.707 39.627 201.807 39.6133C199.906 39.627 198.525 38.5332 198.539 36.9746C198.525 35.4023 199.906 34.3223 201.807 34.3359ZM201.807 35.7305C200.877 35.7305 200.221 36.1816 200.221 36.9746C200.221 37.7539 200.877 38.2051 201.807 38.1914C202.764 38.2051 203.434 37.7539 203.434 36.9746C203.434 36.1816 202.764 35.7305 201.807 35.7305ZM208.232 33.8301V46.2578H206.51V33.8301H208.232ZM197.773 40.3789C199.975 40.3789 203.105 40.3242 205.758 39.9277L205.867 41.2129C204.842 41.418 203.789 41.5479 202.75 41.623V45.8887H201.014V41.7324C199.92 41.7803 198.888 41.7871 197.992 41.8008L197.773 40.3789Z" fill="#93C572"/>
<path d="M-15.2129 313.816V326.285H-16.9766V313.816H-15.2129ZM-21.9668 314.691C-20.0938 314.691 -18.6992 316.414 -18.6992 319.121C-18.6992 321.855 -20.0938 323.564 -21.9668 323.564C-23.8809 323.564 -25.2754 321.855 -25.2617 319.121C-25.2754 316.414 -23.8809 314.691 -21.9668 314.691ZM-21.9668 316.264C-22.9375 316.264 -23.5801 317.275 -23.5801 319.121C-23.5801 320.98 -22.9375 321.979 -21.9668 321.979C-21.0234 321.979 -20.3809 320.98 -20.3809 319.121C-20.3809 317.275 -21.0234 316.264 -21.9668 316.264ZM-0.488281 313.816V318.588H1.27539V320.023H-0.488281V326.23H-2.23828V313.816H-0.488281ZM-3.81055 315.088C-3.82422 318.807 -5.27344 322.033 -9.45703 324.084L-10.4414 322.744C-7.49512 321.268 -5.91602 319.285 -5.58789 316.51H-9.73047V315.088H-3.81055ZM8.45312 314.596C8.45312 315.026 8.41895 315.443 8.35742 315.84H10.5449V313.83H12.2812V321.213H10.5449V319.859H7.71484V318.465H10.5449V317.207H7.94727C7.10645 319.135 5.26758 320.488 2.58789 321.199L1.93164 319.805C4.73438 319.087 6.30664 317.692 6.58008 316.004H2.64258V314.596H8.45312ZM12.2812 321.719V326.23H10.5449V323.086H3.73633V321.719H12.2812ZM25.2422 320.174V321.568H13.8945V320.174H25.2422ZM23.957 324.645V326.039H15.2617V322.402H17.0117V324.645H23.957ZM19.5684 314.199C22.2891 314.186 24.0801 315.156 24.0938 316.742C24.0801 318.328 22.2891 319.312 19.5684 319.312C16.8203 319.312 15.0293 318.328 15.0293 316.742C15.0293 315.156 16.8203 314.186 19.5684 314.199ZM19.5684 315.566C17.8457 315.58 16.834 315.99 16.8477 316.742C16.834 317.521 17.8457 317.904 19.5684 317.904C21.291 317.904 22.2891 317.521 22.2891 316.742C22.2891 315.99 21.291 315.58 19.5684 315.566ZM93.9434 313.816V317.385H95.625V318.834H93.9434V322.881H92.1934V313.816H93.9434ZM94.3945 324.645V326.039H85.877V321.924H87.6133V324.645H94.3945ZM87.5723 314.623C89.4727 314.623 90.9629 315.936 90.9629 317.781C90.9629 319.6 89.4727 320.939 87.5723 320.939C85.6582 320.939 84.1543 319.6 84.1543 317.781C84.1543 315.936 85.6582 314.623 87.5723 314.623ZM87.5723 316.141C86.6289 316.127 85.8633 316.742 85.877 317.781C85.8633 318.793 86.6289 319.422 87.5723 319.422C88.5293 319.422 89.2539 318.793 89.2676 317.781C89.2539 316.742 88.5293 316.127 87.5723 316.141ZM106.959 313.816V326.258H105.291V313.816H106.959ZM104.361 313.994V325.684H102.721V319.805H101.723C101.559 322.252 100.52 323.729 98.9883 323.729C97.3477 323.729 96.2812 322.006 96.2812 319.203C96.2812 316.414 97.3477 314.705 98.9883 314.705C100.485 314.705 101.511 316.1 101.709 318.424H102.721V313.994H104.361ZM98.9883 316.346C98.291 316.346 97.8809 317.303 97.8945 319.203C97.8809 321.117 98.291 322.061 98.9883 322.047C99.6992 322.061 100.123 321.117 100.123 319.203C100.123 317.303 99.6992 316.346 98.9883 316.346ZM116.023 321.801C116.023 322.806 116.44 323.838 117.459 324.521C118.484 323.797 118.936 322.724 118.936 321.801V321.377H120.658V321.801C120.645 323.1 121.342 324.303 122.996 324.809L122.148 326.08C120.959 325.677 120.18 324.918 119.756 323.961C119.339 324.918 118.614 325.752 117.5 326.189C116.324 325.766 115.593 324.959 115.189 324.002C114.752 324.932 113.986 325.684 112.852 326.08L111.99 324.809C113.631 324.248 114.314 323.018 114.328 321.801V321.377H116.023V321.801ZM121.916 313.83V320.857H120.166V313.83H121.916ZM115.094 314.459C117.035 314.459 118.498 315.689 118.498 317.453C118.498 319.189 117.035 320.42 115.094 320.42C113.152 320.42 111.689 319.189 111.689 317.453C111.689 315.689 113.152 314.459 115.094 314.459ZM115.094 315.922C114.096 315.922 113.385 316.496 113.398 317.453C113.385 318.396 114.096 318.971 115.094 318.971C116.064 318.971 116.775 318.396 116.775 317.453C116.775 316.496 116.064 315.922 115.094 315.922ZM127.029 314.691C128.711 314.691 129.962 316.079 130.215 318.314H132.375V313.816H134.098V326.285H132.375V319.709H130.229C130.044 322.102 128.766 323.564 127.029 323.564C125.143 323.564 123.789 321.855 123.803 319.121C123.789 316.414 125.143 314.691 127.029 314.691ZM127.029 316.264C126.1 316.264 125.457 317.275 125.471 319.121C125.457 320.98 126.1 321.979 127.029 321.979C127.973 321.979 128.588 320.98 128.588 319.121C128.588 317.275 127.973 316.264 127.029 316.264ZM147.086 323.373V324.809H135.697V323.373H138.24V320.324C137.276 319.75 136.695 318.868 136.695 317.768C136.695 315.758 138.664 314.418 141.371 314.418C144.064 314.418 146.047 315.758 146.061 317.768C146.054 318.841 145.486 319.716 144.557 320.297V323.373H147.086ZM141.371 315.799C139.594 315.799 138.418 316.51 138.418 317.768C138.418 318.984 139.594 319.736 141.371 319.736C143.135 319.736 144.324 318.984 144.338 317.768C144.324 316.51 143.135 315.799 141.371 315.799ZM139.963 323.373H142.793V320.953C142.349 321.042 141.87 321.09 141.371 321.09C140.872 321.09 140.4 321.049 139.963 320.953V323.373ZM152.719 321.555C152.24 321.555 151.83 321.158 151.844 320.666C151.83 320.188 152.24 319.791 152.719 319.791C153.197 319.791 153.594 320.188 153.594 320.666C153.594 321.158 153.197 321.555 152.719 321.555ZM169.617 320.885V321.773H166.678V326.107H165.598V321.773H162.48V326.107H161.373V321.773H158.488V320.885H169.617ZM164.025 314.445C166.582 314.445 168.305 315.471 168.305 317.098C168.305 318.711 166.582 319.736 164.025 319.723C161.469 319.736 159.746 318.711 159.746 317.098C159.746 315.471 161.469 314.445 164.025 314.445ZM164.025 315.32C162.125 315.32 160.84 316.018 160.854 317.098C160.84 318.178 162.125 318.861 164.025 318.861C165.912 318.861 167.211 318.178 167.211 317.098C167.211 316.018 165.912 315.32 164.025 315.32ZM174.676 317.221C174.676 319.367 176.098 321.568 177.82 322.416L177.164 323.277C175.824 322.573 174.703 321.138 174.17 319.449C173.623 321.247 172.475 322.778 171.107 323.51L170.424 322.648C172.201 321.773 173.609 319.436 173.623 317.221V315.006H174.676V317.221ZM180.008 313.953V318.889H182.045V319.818H180.008V326.107H178.941V313.953H180.008ZM190.275 315.922C190.275 317.576 191.533 319.094 193.297 319.695L192.709 320.543C191.362 320.051 190.303 319.046 189.77 317.781C189.25 319.21 188.17 320.338 186.748 320.885L186.174 320.023C187.992 319.34 189.209 317.713 189.223 315.84V314.582H190.275V315.922ZM195.717 313.953V317.125H197.549V318.027H195.717V321.35H194.65V313.953H195.717ZM191.82 321.664C194.322 321.664 195.826 322.471 195.826 323.865C195.826 325.287 194.322 326.08 191.82 326.08C189.318 326.08 187.787 325.287 187.787 323.865C187.787 322.471 189.318 321.664 191.82 321.664ZM191.82 322.525C189.988 322.525 188.854 323.031 188.867 323.865C188.854 324.727 189.988 325.219 191.82 325.232C193.666 325.219 194.787 324.727 194.787 323.865C194.787 323.031 193.666 322.525 191.82 322.525ZM209.389 319.832V320.721H204.371V322.156H208.035V325.943H199.668V322.156H203.318V320.721H198.314V319.832H209.389ZM208.336 314.35V315.238H206.463V317.795H208.295V318.684H199.395V317.795H201.227V315.238H199.354V314.35H208.336ZM200.734 323.004V325.068H206.982V323.004H200.734ZM202.293 317.795H205.396V315.238H202.293V317.795ZM217.592 325.137C215.801 325.137 214.447 324.029 214.379 322.512H215.568C215.664 323.4 216.525 324.057 217.592 324.057C218.877 324.057 219.807 323.113 219.807 321.869C219.807 320.584 218.836 319.641 217.51 319.627C216.676 319.613 216.033 319.873 215.664 320.516H214.475L215.172 315.102H220.531V316.195H216.197L215.828 319.094H215.924C216.361 318.752 217.031 318.52 217.729 318.52C219.615 318.52 221.01 319.914 221.01 321.842C221.01 323.756 219.561 325.137 217.592 325.137ZM232.357 313.967V322.949H231.277V318.615H228.584V317.713H231.277V313.967H232.357ZM228.639 314.896C228.625 318.014 226.396 320.393 222.938 321.527L222.473 320.666C225.275 319.743 227.224 318 227.463 315.799H223.088V314.896H228.639ZM232.672 324.945V325.848H224.619V322.033H225.713V324.945H232.672ZM247.943 313.953V326.107H246.863V313.953H247.943ZM244.348 315.279C244.334 318.779 242.707 321.869 238.633 323.824L238.045 322.949C241.333 321.391 243.008 319.06 243.254 316.154H238.605V315.279H244.348ZM256.229 315.471C256.215 316.961 258.266 318.178 260.412 318.479L259.988 319.326C258.026 319.046 256.194 318.062 255.531 316.633C254.875 318.062 253.05 319.046 251.074 319.326L250.678 318.479C252.824 318.178 254.834 316.961 254.834 315.471V315.443H251.006V314.568H260.084V315.443H256.229V315.471ZM261.109 320.215V321.104H256.16V323.592H255.094V321.104H249.98V320.215H261.109ZM259.865 324.945V325.848H251.402V322.375H252.482V324.945H259.865Z" fill="#262627"/>
<path d="M39.4746 314.896V316.072C39.4746 317.631 39.4746 319.381 38.9688 322.02L37.2188 321.842C37.6904 319.49 37.7109 317.74 37.7246 316.277H30.3965V314.896H39.4746ZM40.5684 323.318V324.74H29.2207V323.318H33.2812V319.039H35.0176V323.318H40.5684ZM51.1367 313.816V318.588H52.9004V320.023H51.1367V326.23H49.3867V313.816H51.1367ZM47.8145 315.088C47.8008 318.807 46.3516 322.033 42.168 324.084L41.1836 322.744C44.1299 321.268 45.709 319.285 46.0371 316.51H41.8945V315.088H47.8145ZM58.9297 314.527V316.182H61.377V314.527H63.0996V316.77H65.3965V313.816H67.1328V321.021H65.3965V318.191H63.0996V320.488H57.1797V314.527H58.9297ZM58.9297 319.094H61.377V317.535H58.9297V319.094ZM67.1328 321.514V326.121H58.7656V321.514H67.1328ZM60.5156 322.908V324.727H65.4238V322.908H60.5156ZM72.8066 314.336C74.707 314.322 76.0879 315.402 76.0879 316.975C76.0879 318.533 74.707 319.627 72.8066 319.613C70.9062 319.627 69.5254 318.533 69.5391 316.975C69.5254 315.402 70.9062 314.322 72.8066 314.336ZM72.8066 315.73C71.877 315.73 71.2207 316.182 71.2207 316.975C71.2207 317.754 71.877 318.205 72.8066 318.191C73.7637 318.205 74.4336 317.754 74.4336 316.975C74.4336 316.182 73.7637 315.73 72.8066 315.73ZM79.2324 313.83V326.258H77.5098V313.83H79.2324ZM68.7734 320.379C70.9746 320.379 74.1055 320.324 76.7578 319.928L76.8672 321.213C75.8418 321.418 74.7891 321.548 73.75 321.623V325.889H72.0137V321.732C70.9199 321.78 69.8877 321.787 68.9922 321.801L68.7734 320.379Z" fill="#FF584D"/>
<path d="M171.502 93.1074C170.062 93.0967 168.559 92.248 168.559 89.3691C168.559 86.6621 169.729 85.1152 171.599 85.1152C173.027 85.1152 174.026 86.0068 174.209 87.2422H173.038C172.888 86.6084 172.383 86.1465 171.599 86.1465C170.396 86.1465 169.697 87.1992 169.697 88.9502H169.783C170.202 88.2949 170.933 87.8975 171.781 87.8975C173.167 87.8975 174.284 88.9609 174.284 90.4541C174.284 91.958 173.178 93.1182 171.502 93.1074ZM171.491 92.1191C172.437 92.1191 173.135 91.3887 173.135 90.4756C173.135 89.584 172.458 88.8643 171.523 88.8643C170.567 88.8643 169.848 89.6162 169.837 90.4863C169.848 91.3457 170.535 92.1191 171.491 92.1191ZM178.27 93.1074C176.465 93.1074 175.413 91.6572 175.413 89.1113C175.413 86.5869 176.487 85.1152 178.27 85.1152C180.053 85.1152 181.127 86.5869 181.127 89.1113C181.127 91.6572 180.064 93.1074 178.27 93.1074ZM178.27 92.0869C179.323 92.0869 179.946 91.0557 179.946 89.1113C179.946 87.1777 179.312 86.1143 178.27 86.1143C177.228 86.1143 176.594 87.1777 176.594 89.1113C176.594 91.0557 177.217 92.0869 178.27 92.0869ZM185.081 93.1074C183.276 93.1074 182.224 91.6572 182.224 89.1113C182.224 86.5869 183.298 85.1152 185.081 85.1152C186.864 85.1152 187.939 86.5869 187.939 89.1113C187.939 91.6572 186.875 93.1074 185.081 93.1074ZM185.081 92.0869C186.134 92.0869 186.757 91.0557 186.757 89.1113C186.757 87.1777 186.123 86.1143 185.081 86.1143C184.039 86.1143 183.405 87.1777 183.405 89.1113C183.405 91.0557 184.028 92.0869 185.081 92.0869ZM190.292 92.2588L189.432 95.2236H188.519L189.088 92.2588H190.292ZM194.277 93.1074C192.473 93.1074 191.42 91.6572 191.42 89.1113C191.42 86.5869 192.494 85.1152 194.277 85.1152C196.061 85.1152 197.135 86.5869 197.135 89.1113C197.135 91.6572 196.071 93.1074 194.277 93.1074ZM194.277 92.0869C195.33 92.0869 195.953 91.0557 195.953 89.1113C195.953 87.1777 195.319 86.1143 194.277 86.1143C193.235 86.1143 192.602 87.1777 192.602 89.1113C192.602 91.0557 193.225 92.0869 194.277 92.0869ZM201.089 93.1074C199.284 93.1074 198.231 91.6572 198.231 89.1113C198.231 86.5869 199.305 85.1152 201.089 85.1152C202.872 85.1152 203.946 86.5869 203.946 89.1113C203.946 91.6572 202.882 93.1074 201.089 93.1074ZM201.089 92.0869C202.141 92.0869 202.764 91.0557 202.764 89.1113C202.764 87.1777 202.131 86.1143 201.089 86.1143C200.047 86.1143 199.413 87.1777 199.413 89.1113C199.413 91.0557 200.036 92.0869 201.089 92.0869ZM207.9 93.1074C206.095 93.1074 205.042 91.6572 205.042 89.1113C205.042 86.5869 206.116 85.1152 207.9 85.1152C209.683 85.1152 210.757 86.5869 210.757 89.1113C210.757 91.6572 209.694 93.1074 207.9 93.1074ZM207.9 92.0869C208.952 92.0869 209.575 91.0557 209.575 89.1113C209.575 87.1777 208.942 86.1143 207.9 86.1143C206.858 86.1143 206.224 87.1777 206.224 89.1113C206.224 91.0557 206.847 92.0869 207.9 92.0869ZM219.674 84.2988V91.5928H218.653V90.6689H216.719V89.9492H218.653V84.2988H219.674ZM219.91 92.8818V93.709H212.96V90.8838H213.969V92.8818H219.91ZM211.628 88.6924C213.411 88.6816 215.806 88.6602 217.858 88.4023L217.923 89.1328C217.101 89.2671 216.236 89.3584 215.387 89.4121V91.292H214.367V89.4658C213.432 89.5088 212.535 89.5142 211.757 89.5088L211.628 88.6924ZM214.775 84.6641C216.182 84.6641 217.16 85.3408 217.16 86.3613C217.16 87.3818 216.182 88.0371 214.775 88.0371C213.346 88.0371 212.38 87.3818 212.38 86.3613C212.38 85.3408 213.346 84.6641 214.775 84.6641ZM214.775 85.4268C213.916 85.416 213.336 85.7812 213.346 86.3613C213.336 86.9307 213.916 87.2852 214.775 87.2852C215.602 87.2852 216.182 86.9307 216.193 86.3613C216.182 85.7812 215.602 85.416 214.775 85.4268Z" fill="#72787F"/>
<path d="M42.502 373.107C41.0625 373.097 39.5586 372.248 39.5586 369.369C39.5586 366.662 40.7295 365.115 42.5986 365.115C44.0273 365.115 45.0264 366.007 45.209 367.242H44.0381C43.8877 366.608 43.3828 366.146 42.5986 366.146C41.3955 366.146 40.6973 367.199 40.6973 368.95H40.7832C41.2021 368.295 41.9326 367.897 42.7812 367.897C44.167 367.897 45.2842 368.961 45.2842 370.454C45.2842 371.958 44.1777 373.118 42.502 373.107ZM42.4912 372.119C43.4365 372.119 44.1348 371.389 44.1348 370.476C44.1348 369.584 43.458 368.864 42.5234 368.864C41.5674 368.864 40.8477 369.616 40.8369 370.486C40.8477 371.346 41.5352 372.119 42.4912 372.119ZM49.27 373.107C47.4654 373.107 46.4126 371.657 46.4126 369.111C46.4126 366.587 47.4868 365.115 49.27 365.115C51.0532 365.115 52.1275 366.587 52.1275 369.111C52.1275 371.657 51.064 373.107 49.27 373.107ZM49.27 372.087C50.3228 372.087 50.9458 371.056 50.9458 369.111C50.9458 367.178 50.312 366.114 49.27 366.114C48.2281 366.114 47.5943 367.178 47.5943 369.111C47.5943 371.056 48.2173 372.087 49.27 372.087ZM56.0811 373.107C54.2764 373.107 53.2237 371.657 53.2237 369.111C53.2237 366.587 54.2979 365.115 56.0811 365.115C57.8643 365.115 58.9385 366.587 58.9385 369.111C58.9385 371.657 57.8751 373.107 56.0811 373.107ZM56.0811 372.087C57.1338 372.087 57.7569 371.056 57.7569 369.111C57.7569 367.178 57.1231 366.114 56.0811 366.114C55.0391 366.114 54.4053 367.178 54.4053 369.111C54.4053 371.056 55.0284 372.087 56.0811 372.087ZM61.2916 372.259L60.4322 375.224H59.5191L60.0885 372.259H61.2916ZM65.2775 373.107C63.4728 373.107 62.42 371.657 62.42 369.111C62.42 366.587 63.4942 365.115 65.2775 365.115C67.0607 365.115 68.1349 366.587 68.1349 369.111C68.1349 371.657 67.0714 373.107 65.2775 373.107ZM65.2775 372.087C66.3302 372.087 66.9532 371.056 66.9532 369.111C66.9532 367.178 66.3194 366.114 65.2775 366.114C64.2355 366.114 63.6017 367.178 63.6017 369.111C63.6017 371.056 64.2247 372.087 65.2775 372.087ZM72.0885 373.107C70.2838 373.107 69.2311 371.657 69.2311 369.111C69.2311 366.587 70.3053 365.115 72.0885 365.115C73.8717 365.115 74.9459 366.587 74.9459 369.111C74.9459 371.657 73.8825 373.107 72.0885 373.107ZM72.0885 372.087C73.1413 372.087 73.7643 371.056 73.7643 369.111C73.7643 367.178 73.1305 366.114 72.0885 366.114C71.0465 366.114 70.4127 367.178 70.4127 369.111C70.4127 371.056 71.0358 372.087 72.0885 372.087ZM78.8996 373.107C77.0949 373.107 76.0422 371.657 76.0422 369.111C76.0422 366.587 77.1164 365.115 78.8996 365.115C80.6828 365.115 81.757 366.587 81.757 369.111C81.757 371.657 80.6935 373.107 78.8996 373.107ZM78.8996 372.087C79.9523 372.087 80.5754 371.056 80.5754 369.111C80.5754 367.178 79.9416 366.114 78.8996 366.114C77.8576 366.114 77.2238 367.178 77.2238 369.111C77.2238 371.056 77.8468 372.087 78.8996 372.087ZM90.6735 364.299V371.593H89.653V370.669H87.7194V369.949H89.653V364.299H90.6735ZM90.9099 372.882V373.709H83.9597V370.884H84.9694V372.882H90.9099ZM82.6276 368.692C84.4108 368.682 86.8063 368.66 88.8581 368.402L88.9226 369.133C88.1008 369.267 87.236 369.358 86.3874 369.412V371.292H85.3669V369.466C84.4323 369.509 83.5353 369.514 82.7565 369.509L82.6276 368.692ZM85.7751 364.664C87.1823 364.664 88.1599 365.341 88.1599 366.361C88.1599 367.382 87.1823 368.037 85.7751 368.037C84.3464 368.037 83.3796 367.382 83.3796 366.361C83.3796 365.341 84.3464 364.664 85.7751 364.664ZM85.7751 365.427C84.9157 365.416 84.3356 365.781 84.3464 366.361C84.3356 366.931 84.9157 367.285 85.7751 367.285C86.6022 367.285 87.1823 366.931 87.1931 366.361C87.1823 365.781 86.6022 365.416 85.7751 365.427Z" fill="#72787F"/>
<path d="M310.405 93.1074C308.719 93.1074 307.537 92.1943 307.548 90.9268C307.537 89.9277 308.257 89.1113 309.17 88.9717V88.9287C308.375 88.7461 307.838 88.0371 307.838 87.1885C307.838 85.9961 308.923 85.1152 310.405 85.1152C311.877 85.1152 312.951 85.9961 312.962 87.1885C312.951 88.0371 312.414 88.7461 311.63 88.9287V88.9717C312.532 89.1113 313.252 89.9277 313.263 90.9268C313.252 92.1943 312.07 93.1074 310.405 93.1074ZM310.405 92.1299C311.415 92.1299 312.06 91.6035 312.06 90.8408C312.06 90.0352 311.361 89.4551 310.405 89.4551C309.438 89.4551 308.729 90.0352 308.751 90.8408C308.729 91.6035 309.374 92.1299 310.405 92.1299ZM310.405 88.5205C311.222 88.5205 311.802 88.0264 311.802 87.2959C311.802 86.5762 311.232 86.082 310.405 86.082C309.546 86.082 308.987 86.5654 308.987 87.2959C308.987 88.0264 309.578 88.5205 310.405 88.5205ZM317.152 93.1074C315.68 93.1074 314.574 92.2051 314.52 90.9697H315.669C315.734 91.6357 316.368 92.1191 317.152 92.1191C318.097 92.1191 318.774 91.4316 318.774 90.5078C318.774 89.5625 318.076 88.875 317.098 88.8643C316.475 88.8643 316.002 89.0684 315.734 89.5518H314.617L315.122 85.2227H319.526V86.2324H316.099L315.841 88.4131H315.917C316.239 88.1016 316.787 87.8867 317.377 87.8867C318.838 87.8867 319.923 88.9717 319.923 90.4756C319.923 92.0117 318.774 93.1074 317.152 93.1074ZM323.909 93.1074C322.105 93.1074 321.052 91.6572 321.052 89.1113C321.052 86.5869 322.126 85.1152 323.909 85.1152C325.692 85.1152 326.767 86.5869 326.767 89.1113C326.767 91.6572 325.703 93.1074 323.909 93.1074ZM323.909 92.0869C324.962 92.0869 325.585 91.0557 325.585 89.1113C325.585 87.1777 324.951 86.1143 323.909 86.1143C322.867 86.1143 322.233 87.1777 322.233 89.1113C322.233 91.0557 322.856 92.0869 323.909 92.0869ZM329.12 92.2588L328.26 95.2236H327.347L327.917 92.2588H329.12ZM333.106 93.1074C331.301 93.1074 330.248 91.6572 330.248 89.1113C330.248 86.5869 331.322 85.1152 333.106 85.1152C334.889 85.1152 335.963 86.5869 335.963 89.1113C335.963 91.6572 334.9 93.1074 333.106 93.1074ZM333.106 92.0869C334.158 92.0869 334.781 91.0557 334.781 89.1113C334.781 87.1777 334.148 86.1143 333.106 86.1143C332.064 86.1143 331.43 87.1777 331.43 89.1113C331.43 91.0557 332.053 92.0869 333.106 92.0869ZM339.917 93.1074C338.112 93.1074 337.059 91.6572 337.059 89.1113C337.059 86.5869 338.133 85.1152 339.917 85.1152C341.7 85.1152 342.774 86.5869 342.774 89.1113C342.774 91.6572 341.711 93.1074 339.917 93.1074ZM339.917 92.0869C340.969 92.0869 341.592 91.0557 341.592 89.1113C341.592 87.1777 340.959 86.1143 339.917 86.1143C338.875 86.1143 338.241 87.1777 338.241 89.1113C338.241 91.0557 338.864 92.0869 339.917 92.0869ZM346.728 93.1074C344.923 93.1074 343.87 91.6572 343.87 89.1113C343.87 86.5869 344.944 85.1152 346.728 85.1152C348.511 85.1152 349.585 86.5869 349.585 89.1113C349.585 91.6572 348.522 93.1074 346.728 93.1074ZM346.728 92.0869C347.78 92.0869 348.403 91.0557 348.403 89.1113C348.403 87.1777 347.77 86.1143 346.728 86.1143C345.686 86.1143 345.052 87.1777 345.052 89.1113C345.052 91.0557 345.675 92.0869 346.728 92.0869ZM358.502 84.2988V91.5928H357.481V90.6689H355.548V89.9492H357.481V84.2988H358.502ZM358.738 92.8818V93.709H351.788V90.8838H352.798V92.8818H358.738ZM350.456 88.6924C352.239 88.6816 354.634 88.6602 356.686 88.4023L356.751 89.1328C355.929 89.2671 355.064 89.3584 354.216 89.4121V91.292H353.195V89.4658C352.26 89.5088 351.363 89.5142 350.585 89.5088L350.456 88.6924ZM353.603 84.6641C355.01 84.6641 355.988 85.3408 355.988 86.3613C355.988 87.3818 355.01 88.0371 353.603 88.0371C352.175 88.0371 351.208 87.3818 351.208 86.3613C351.208 85.3408 352.175 84.6641 353.603 84.6641ZM353.603 85.4268C352.744 85.416 352.164 85.7812 352.175 86.3613C352.164 86.9307 352.744 87.2852 353.603 87.2852C354.43 87.2852 355.01 86.9307 355.021 86.3613C355.01 85.7812 354.43 85.416 353.603 85.4268Z" fill="#72787F"/>
<path d="M181.405 373.107C179.719 373.107 178.537 372.194 178.548 370.927C178.537 369.928 179.257 369.111 180.17 368.972V368.929C179.375 368.746 178.838 368.037 178.838 367.188C178.838 365.996 179.923 365.115 181.405 365.115C182.877 365.115 183.951 365.996 183.962 367.188C183.951 368.037 183.414 368.746 182.63 368.929V368.972C183.532 369.111 184.252 369.928 184.263 370.927C184.252 372.194 183.07 373.107 181.405 373.107ZM181.405 372.13C182.415 372.13 183.06 371.604 183.06 370.841C183.06 370.035 182.361 369.455 181.405 369.455C180.438 369.455 179.729 370.035 179.751 370.841C179.729 371.604 180.374 372.13 181.405 372.13ZM181.405 368.521C182.222 368.521 182.802 368.026 182.802 367.296C182.802 366.576 182.232 366.082 181.405 366.082C180.546 366.082 179.987 366.565 179.987 367.296C179.987 368.026 180.578 368.521 181.405 368.521ZM188.152 373.107C186.68 373.107 185.574 372.205 185.52 370.97H186.669C186.734 371.636 187.368 372.119 188.152 372.119C189.097 372.119 189.774 371.432 189.774 370.508C189.774 369.562 189.076 368.875 188.098 368.864C187.475 368.864 187.002 369.068 186.734 369.552H185.617L186.122 365.223H190.526V366.232H187.099L186.841 368.413H186.917C187.239 368.102 187.787 367.887 188.377 367.887C189.838 367.887 190.923 368.972 190.923 370.476C190.923 372.012 189.774 373.107 188.152 373.107ZM194.909 373.107C193.105 373.107 192.052 371.657 192.052 369.111C192.052 366.587 193.126 365.115 194.909 365.115C196.692 365.115 197.767 366.587 197.767 369.111C197.767 371.657 196.703 373.107 194.909 373.107ZM194.909 372.087C195.962 372.087 196.585 371.056 196.585 369.111C196.585 367.178 195.951 366.114 194.909 366.114C193.867 366.114 193.233 367.178 193.233 369.111C193.233 371.056 193.856 372.087 194.909 372.087ZM200.12 372.259L199.26 375.224H198.347L198.917 372.259H200.12ZM204.106 373.107C202.301 373.107 201.248 371.657 201.248 369.111C201.248 366.587 202.322 365.115 204.106 365.115C205.889 365.115 206.963 366.587 206.963 369.111C206.963 371.657 205.9 373.107 204.106 373.107ZM204.106 372.087C205.158 372.087 205.781 371.056 205.781 369.111C205.781 367.178 205.148 366.114 204.106 366.114C203.064 366.114 202.43 367.178 202.43 369.111C202.43 371.056 203.053 372.087 204.106 372.087ZM210.917 373.107C209.112 373.107 208.059 371.657 208.059 369.111C208.059 366.587 209.133 365.115 210.917 365.115C212.7 365.115 213.774 366.587 213.774 369.111C213.774 371.657 212.711 373.107 210.917 373.107ZM210.917 372.087C211.969 372.087 212.592 371.056 212.592 369.111C212.592 367.178 211.959 366.114 210.917 366.114C209.875 366.114 209.241 367.178 209.241 369.111C209.241 371.056 209.864 372.087 210.917 372.087ZM217.728 373.107C215.923 373.107 214.87 371.657 214.87 369.111C214.87 366.587 215.944 365.115 217.728 365.115C219.511 365.115 220.585 366.587 220.585 369.111C220.585 371.657 219.522 373.107 217.728 373.107ZM217.728 372.087C218.78 372.087 219.403 371.056 219.403 369.111C219.403 367.178 218.77 366.114 217.728 366.114C216.686 366.114 216.052 367.178 216.052 369.111C216.052 371.056 216.675 372.087 217.728 372.087ZM229.502 364.299V371.593H228.481V370.669H226.548V369.949H228.481V364.299H229.502ZM229.738 372.882V373.709H222.788V370.884H223.798V372.882H229.738ZM221.456 368.692C223.239 368.682 225.634 368.66 227.686 368.402L227.751 369.133C226.929 369.267 226.064 369.358 225.216 369.412V371.292H224.195V369.466C223.26 369.509 222.363 369.514 221.585 369.509L221.456 368.692ZM224.603 364.664C226.01 364.664 226.988 365.341 226.988 366.361C226.988 367.382 226.01 368.037 224.603 368.037C223.175 368.037 222.208 367.382 222.208 366.361C222.208 365.341 223.175 364.664 224.603 364.664ZM224.603 365.427C223.744 365.416 223.164 365.781 223.175 366.361C223.164 366.931 223.744 367.285 224.603 367.285C225.43 367.285 226.01 366.931 226.021 366.361C226.01 365.781 225.43 365.416 224.603 365.427Z" fill="#72787F"/>
<rect x="103" y="60" width="334" height="18" rx="9" fill="#E8EBED"/>
<rect x="-26" y="340" width="334" height="18" rx="9" fill="#E8EBED"/>
<rect x="179" y="60" width="155" height="18" rx="9" fill="#C9CDD2"/>
<rect x="50" y="340" width="155" height="18" rx="9" fill="#C9CDD2"/>
<rect x="103" y="60" width="76" height="18" rx="9" fill="#93C572"/>
<rect x="205" y="340" width="103" height="18" rx="9" fill="#FF584D"/>
<path d="M228.803 65.9961C228.803 67.21 229.673 68.4023 231.123 68.8965L230.597 69.6914C229.517 69.3154 228.717 68.5474 228.298 67.5967C227.879 68.6548 227.036 69.5034 225.892 69.9062L225.365 69.1006C226.848 68.5957 227.761 67.3066 227.761 66.0068V65.7383H225.677V64.9111H230.865V65.7383H228.803V65.9961ZM233.379 70.5293V73.9131H232.358V71.3564H226.858V70.5293H233.379ZM233.379 64.2881V70.0459H232.358V67.5752H230.575V66.7373H232.358V64.2881H233.379ZM242.908 64.2881V70.0137H241.887V67.5752H240.093V66.7373H241.887V64.2881H242.908ZM239.685 70.2822C241.705 70.2822 242.94 70.9482 242.94 72.0977C242.94 73.2471 241.705 73.9023 239.685 73.9131C237.666 73.9023 236.419 73.2471 236.43 72.0977C236.419 70.9482 237.666 70.2822 239.685 70.2822ZM239.685 71.0771C238.278 71.0771 237.44 71.4424 237.44 72.0977C237.44 72.7422 238.278 73.1182 239.685 73.1074C241.092 73.1182 241.93 72.7422 241.93 72.0977C241.93 71.4424 241.092 71.0771 239.685 71.0771ZM238.332 65.9854C238.332 67.21 239.202 68.3916 240.652 68.8857L240.126 69.6914C239.046 69.3154 238.251 68.5474 237.837 67.5967C237.413 68.6763 236.57 69.541 235.42 69.96L234.883 69.1436C236.376 68.6279 237.29 67.3281 237.29 65.9961V65.7812H235.206V64.9541H240.394V65.7812H238.332V65.9854ZM254.618 64.2881V68.123H256.111V68.9717H254.618V73.9023H253.597V64.2881H254.618ZM252.104 65.2979C252.093 68.0801 250.869 70.5615 247.7 72.1299L247.13 71.335C249.542 70.1318 250.853 68.3916 251.062 66.1465H247.614V65.2979H252.104ZM261.751 64.9219C261.751 65.2871 261.713 65.6309 261.644 65.9639H263.652V64.2988H264.673V70.0244H263.652V68.8213H261.225V67.9941H263.652V66.7803H261.386C260.736 68.2896 259.259 69.3691 257.175 69.9277L256.788 69.1221C259.076 68.5044 260.467 67.2798 260.655 65.749H257.293V64.9219H261.751ZM264.673 70.4434V73.8916H263.652V71.249H258.152V70.4434H264.673ZM270.367 64.8359V66.2861H272.774V64.8359H273.783V66.6729H275.889V64.2881H276.909V69.8633H275.889V67.5215H273.783V69.3691H269.347V64.8359H270.367ZM270.367 68.5527H272.774V67.0918H270.367V68.5527ZM276.909 70.3145V73.7949H270.561V70.3145H276.909ZM271.57 71.1309V72.9678H275.91V71.1309H271.57ZM281.572 64.7285C283.022 64.7285 284.075 65.5342 284.075 66.7266C284.075 67.9082 283.022 68.7246 281.572 68.7139C280.122 68.7246 279.091 67.9082 279.091 66.7266C279.091 65.5342 280.122 64.7285 281.572 64.7285ZM281.572 65.5557C280.702 65.5557 280.068 66.0176 280.079 66.7266C280.068 67.4248 280.702 67.8867 281.572 67.876C282.464 67.8867 283.097 67.4248 283.097 66.7266C283.097 66.0176 282.464 65.5557 281.572 65.5557ZM286.417 64.2988V73.9131H285.407V64.2988H286.417ZM278.403 69.4658C280.175 69.4658 282.635 69.4229 284.741 69.1113L284.816 69.874C283.941 70.0405 283.028 70.1426 282.141 70.207V73.6123H281.121V70.2607C280.186 70.3037 279.305 70.3091 278.543 70.3145L278.403 69.4658Z" fill="#72787F"/>
<path d="M99.8027 345.996C99.8027 347.21 100.673 348.402 102.123 348.896L101.597 349.691C100.517 349.315 99.7168 348.547 99.2979 347.597C98.8789 348.655 98.0356 349.503 96.8916 349.906L96.3652 349.101C97.8477 348.596 98.7607 347.307 98.7607 346.007V345.738H96.6768V344.911H101.865V345.738H99.8027V345.996ZM104.379 350.529V353.913H103.358V351.356H97.8584V350.529H104.379ZM104.379 344.288V350.046H103.358V347.575H101.575V346.737H103.358V344.288H104.379ZM113.908 344.288V350.014H112.887V347.575H111.093V346.737H112.887V344.288H113.908ZM110.685 350.282C112.705 350.282 113.94 350.948 113.94 352.098C113.94 353.247 112.705 353.902 110.685 353.913C108.666 353.902 107.419 353.247 107.43 352.098C107.419 350.948 108.666 350.282 110.685 350.282ZM110.685 351.077C109.278 351.077 108.44 351.442 108.44 352.098C108.44 352.742 109.278 353.118 110.685 353.107C112.092 353.118 112.93 352.742 112.93 352.098C112.93 351.442 112.092 351.077 110.685 351.077ZM109.332 345.985C109.332 347.21 110.202 348.392 111.652 348.886L111.126 349.691C110.046 349.315 109.251 348.547 108.837 347.597C108.413 348.676 107.57 349.541 106.42 349.96L105.883 349.144C107.376 348.628 108.29 347.328 108.29 345.996V345.781H106.206V344.954H111.394V345.781H109.332V345.985ZM125.618 344.288V348.123H127.111V348.972H125.618V353.902H124.597V344.288H125.618ZM123.104 345.298C123.093 348.08 121.869 350.562 118.7 352.13L118.13 351.335C120.542 350.132 121.853 348.392 122.062 346.146H118.614V345.298H123.104ZM132.751 344.922C132.751 345.287 132.713 345.631 132.644 345.964H134.652V344.299H135.673V350.024H134.652V348.821H132.225V347.994H134.652V346.78H132.386C131.736 348.29 130.259 349.369 128.175 349.928L127.788 349.122C130.076 348.504 131.467 347.28 131.655 345.749H128.293V344.922H132.751ZM135.673 350.443V353.892H134.652V351.249H129.152V350.443H135.673ZM141.367 344.836V346.286H143.774V344.836H144.783V346.673H146.889V344.288H147.909V349.863H146.889V347.521H144.783V349.369H140.347V344.836H141.367ZM141.367 348.553H143.774V347.092H141.367V348.553ZM147.909 350.314V353.795H141.561V350.314H147.909ZM142.57 351.131V352.968H146.91V351.131H142.57ZM152.572 344.729C154.022 344.729 155.075 345.534 155.075 346.727C155.075 347.908 154.022 348.725 152.572 348.714C151.122 348.725 150.091 347.908 150.091 346.727C150.091 345.534 151.122 344.729 152.572 344.729ZM152.572 345.556C151.702 345.556 151.068 346.018 151.079 346.727C151.068 347.425 151.702 347.887 152.572 347.876C153.464 347.887 154.097 347.425 154.097 346.727C154.097 346.018 153.464 345.556 152.572 345.556ZM157.417 344.299V353.913H156.407V344.299H157.417ZM149.403 349.466C151.175 349.466 153.635 349.423 155.741 349.111L155.816 349.874C154.941 350.041 154.028 350.143 153.141 350.207V353.612H152.121V350.261C151.186 350.304 150.305 350.309 149.543 350.314L149.403 349.466Z" fill="#72787F"/>
<path d="M128.39 64.2881V73.9346H127.369V68.585H125.382V67.7471H127.369V64.2881H128.39ZM123.792 66.9951C123.792 68.6279 124.812 70.3789 126.295 71.0342L125.683 71.8506C124.571 71.3135 123.711 70.1909 123.287 68.875C122.857 70.2769 121.982 71.4746 120.87 72.0439L120.247 71.249C121.719 70.5508 122.75 68.7246 122.761 66.9951V66.0928H120.634V65.2549H125.93V66.0928H123.792V66.9951ZM137.381 64.2881V68.123H138.875V68.9717H137.381V73.9023H136.361V64.2881H137.381ZM134.868 65.2979C134.857 68.0801 133.632 70.5615 130.463 72.1299L129.894 71.335C132.306 70.1318 133.616 68.3916 133.826 66.1465H130.377V65.2979H134.868ZM143.602 64.8359V66.2861H146.008V64.8359H147.018V66.6729H149.124V64.2881H150.144V69.8633H149.124V67.5215H147.018V69.3691H142.582V64.8359H143.602ZM143.602 68.5527H146.008V67.0918H143.602V68.5527ZM150.144 70.3145V73.7949H143.795V70.3145H150.144ZM144.805 71.1309V72.9678H149.145V71.1309H144.805ZM154.807 64.7285C156.257 64.7285 157.31 65.5342 157.31 66.7266C157.31 67.9082 156.257 68.7246 154.807 68.7139C153.357 68.7246 152.325 67.9082 152.325 66.7266C152.325 65.5342 153.357 64.7285 154.807 64.7285ZM154.807 65.5557C153.937 65.5557 153.303 66.0176 153.314 66.7266C153.303 67.4248 153.937 67.8867 154.807 67.876C155.698 67.8867 156.332 67.4248 156.332 66.7266C156.332 66.0176 155.698 65.5557 154.807 65.5557ZM159.651 64.2988V73.9131H158.642V64.2988H159.651ZM151.638 69.4658C153.41 69.4658 155.87 69.4229 157.976 69.1113L158.051 69.874C157.175 70.0405 156.262 70.1426 155.376 70.207V73.6123H154.356V70.2607C153.421 70.3037 152.54 70.3091 151.777 70.3145L151.638 69.4658Z" fill="#262627"/>
<path d="M244.143 345.212V346.157C244.143 347.35 244.143 348.682 243.777 350.647L242.746 350.54C243.122 348.682 243.122 347.317 243.122 346.157V346.039H237.278V345.212H244.143ZM245.131 351.765V352.613H236.354V351.765H239.695V348.37H240.705V351.765H245.131ZM253.381 344.288V348.123H254.875V348.972H253.381V353.902H252.361V344.288H253.381ZM250.868 345.298C250.857 348.08 249.632 350.562 246.463 352.13L245.894 351.335C248.306 350.132 249.616 348.392 249.826 346.146H246.377V345.298H250.868ZM259.602 344.836V346.286H262.008V344.836H263.018V346.673H265.124V344.288H266.144V349.863H265.124V347.521H263.018V349.369H258.582V344.836H259.602ZM259.602 348.553H262.008V347.092H259.602V348.553ZM266.144 350.314V353.795H259.795V350.314H266.144ZM260.805 351.131V352.968H265.145V351.131H260.805ZM270.807 344.729C272.257 344.729 273.31 345.534 273.31 346.727C273.31 347.908 272.257 348.725 270.807 348.714C269.357 348.725 268.325 347.908 268.325 346.727C268.325 345.534 269.357 344.729 270.807 344.729ZM270.807 345.556C269.937 345.556 269.303 346.018 269.314 346.727C269.303 347.425 269.937 347.887 270.807 347.876C271.698 347.887 272.332 347.425 272.332 346.727C272.332 346.018 271.698 345.556 270.807 345.556ZM275.651 344.299V353.913H274.642V344.299H275.651ZM267.638 349.466C269.41 349.466 271.87 349.423 273.976 349.111L274.051 349.874C273.175 350.041 272.262 350.143 271.376 350.207V353.612H270.356V350.261C269.421 350.304 268.54 350.309 267.777 350.314L267.638 349.466Z" fill="#262627"/>
<g filter="url(#filter2_d_980_523)">
<rect x="17" y="140" width="358" height="108" rx="12" fill="#F7F8F9"/>
<path d="M37.7656 161.117V164.867H30.5352V161.117H37.7656ZM31.6367 161.996V163.965H36.6758V161.996H31.6367ZM37.7656 154.965V155.832C37.7539 156.664 37.7539 157.52 37.4844 158.598L36.3711 158.492C36.6523 157.42 36.6523 156.658 36.6523 155.844H30.5117V154.965H37.7656ZM38.9492 159.16V160.051H29.3984V159.16H33.2305V157.203H34.3203V159.16H38.9492ZM48.1487 161.117V164.867H40.9183V161.117H48.1487ZM42.0198 161.996V163.965H47.0589V161.996H42.0198ZM48.1487 154.965V155.832C48.137 156.664 48.137 157.52 47.8675 158.598L46.7542 158.492C47.0354 157.42 47.0354 156.658 47.0354 155.844H40.8948V154.965H48.1487ZM49.3323 159.16V160.051H39.7815V159.16H43.6136V157.203H44.7034V159.16H49.3323ZM58.8482 154.496V165.02H57.7349V154.496H58.8482ZM53.2349 155.281C54.7935 155.281 55.942 156.711 55.942 158.961C55.942 161.223 54.7935 162.652 53.2349 162.652C51.6529 162.652 50.5162 161.223 50.5162 158.961C50.5162 156.711 51.6529 155.281 53.2349 155.281ZM53.2349 156.277C52.2623 156.277 51.5943 157.309 51.5943 158.961C51.5943 160.625 52.2623 161.656 53.2349 161.656C54.1959 161.656 54.8638 160.625 54.8638 158.961C54.8638 157.309 54.1959 156.277 53.2349 156.277ZM63.9579 155.246C65.6219 155.234 66.8055 156.266 66.8172 157.742C66.8055 159.219 65.6219 160.25 63.9579 160.25C62.3055 160.25 61.0868 159.219 61.0985 157.742C61.0868 156.266 62.3055 155.234 63.9579 155.246ZM63.9579 156.207C62.9383 156.207 62.1883 156.816 62.2001 157.742C62.1883 158.668 62.9383 159.277 63.9579 159.277C64.9774 159.277 65.7274 158.668 65.7274 157.742C65.7274 156.816 64.9774 156.207 63.9579 156.207ZM69.2196 154.496V165.02H68.1063V154.496H69.2196ZM60.5946 161.832C62.5047 161.832 65.1532 161.809 67.4501 161.48L67.5321 162.289C65.1532 162.746 62.6102 162.758 60.7352 162.758L60.5946 161.832ZM82.0405 154.496V158.68H83.6694V159.605H82.0405V164.984H80.9272V154.496H82.0405ZM79.2983 155.598C79.2866 158.633 77.9506 161.34 74.4936 163.051L73.8725 162.184C76.5034 160.871 77.933 158.973 78.1616 156.523H74.3998V155.598H79.2983ZM89.8103 155.188C89.8103 155.586 89.7693 155.961 89.6931 156.324H91.8845V154.508H92.9978V160.754H91.8845V159.441H89.2361V158.539H91.8845V157.215H89.4118C88.7029 158.861 87.0915 160.039 84.8181 160.648L84.3962 159.77C86.8923 159.096 88.4099 157.76 88.615 156.09H84.947V155.188H89.8103ZM92.9978 161.211V164.973H91.8845V162.09H85.8845V161.211H92.9978ZM105.748 154.496V158.68H107.377V159.605H105.748V164.984H104.635V154.496H105.748ZM103.006 155.598C102.994 158.633 101.659 161.34 98.2015 163.051L97.5804 162.184C100.211 160.871 101.641 158.973 101.869 156.523H98.1077V155.598H103.006ZM116.647 154.496V165.02H115.534V154.496H116.647ZM111.034 155.281C112.592 155.281 113.741 156.711 113.741 158.961C113.741 161.223 112.592 162.652 111.034 162.652C109.452 162.652 108.315 161.223 108.315 158.961C108.315 156.711 109.452 155.281 111.034 155.281ZM111.034 156.277C110.061 156.277 109.393 157.309 109.393 158.961C109.393 160.625 110.061 161.656 111.034 161.656C111.995 161.656 112.663 160.625 112.663 158.961C112.663 157.309 111.995 156.277 111.034 156.277ZM126.843 159.477V160.391H119.53V155.434H126.749V156.348H120.632V159.477H126.843ZM127.944 162.688V163.613H118.335V162.688H127.944Z" fill="#262627"/>
<path d="M39.7871 173.816V186.285H38.0234V173.816H39.7871ZM33.0332 174.691C34.9062 174.691 36.3008 176.414 36.3008 179.121C36.3008 181.855 34.9062 183.564 33.0332 183.564C31.1191 183.564 29.7246 181.855 29.7383 179.121C29.7246 176.414 31.1191 174.691 33.0332 174.691ZM33.0332 176.264C32.0625 176.264 31.4199 177.275 31.4199 179.121C31.4199 180.98 32.0625 181.979 33.0332 181.979C33.9766 181.979 34.6191 180.98 34.6191 179.121C34.6191 177.275 33.9766 176.264 33.0332 176.264ZM54.5117 173.816V178.588H56.2754V180.023H54.5117V186.23H52.7617V173.816H54.5117ZM51.1895 175.088C51.1758 178.807 49.7266 182.033 45.543 184.084L44.5586 182.744C47.5049 181.268 49.084 179.285 49.4121 176.51H45.2695V175.088H51.1895ZM63.4531 174.596C63.4531 175.026 63.4189 175.443 63.3574 175.84H65.5449V173.83H67.2812V181.213H65.5449V179.859H62.7148V178.465H65.5449V177.207H62.9473C62.1064 179.135 60.2676 180.488 57.5879 181.199L56.9316 179.805C59.7344 179.087 61.3066 177.692 61.5801 176.004H57.6426V174.596H63.4531ZM67.2812 181.719V186.23H65.5449V183.086H58.7363V181.719H67.2812ZM80.2422 180.174V181.568H68.8945V180.174H80.2422ZM78.957 184.645V186.039H70.2617V182.402H72.0117V184.645H78.957ZM74.5684 174.199C77.2891 174.186 79.0801 175.156 79.0938 176.742C79.0801 178.328 77.2891 179.312 74.5684 179.312C71.8203 179.312 70.0293 178.328 70.0293 176.742C70.0293 175.156 71.8203 174.186 74.5684 174.199ZM74.5684 175.566C72.8457 175.58 71.834 175.99 71.8477 176.742C71.834 177.521 72.8457 177.904 74.5684 177.904C76.291 177.904 77.2891 177.521 77.2891 176.742C77.2891 175.99 76.291 175.58 74.5684 175.566ZM148.943 173.816V177.385H150.625V178.834H148.943V182.881H147.193V173.816H148.943ZM149.395 184.645V186.039H140.877V181.924H142.613V184.645H149.395ZM142.572 174.623C144.473 174.623 145.963 175.936 145.963 177.781C145.963 179.6 144.473 180.939 142.572 180.939C140.658 180.939 139.154 179.6 139.154 177.781C139.154 175.936 140.658 174.623 142.572 174.623ZM142.572 176.141C141.629 176.127 140.863 176.742 140.877 177.781C140.863 178.793 141.629 179.422 142.572 179.422C143.529 179.422 144.254 178.793 144.268 177.781C144.254 176.742 143.529 176.127 142.572 176.141ZM161.959 173.816V186.258H160.291V173.816H161.959ZM159.361 173.994V185.684H157.721V179.805H156.723C156.559 182.252 155.52 183.729 153.988 183.729C152.348 183.729 151.281 182.006 151.281 179.203C151.281 176.414 152.348 174.705 153.988 174.705C155.485 174.705 156.511 176.1 156.709 178.424H157.721V173.994H159.361ZM153.988 176.346C153.291 176.346 152.881 177.303 152.895 179.203C152.881 181.117 153.291 182.061 153.988 182.047C154.699 182.061 155.123 181.117 155.123 179.203C155.123 177.303 154.699 176.346 153.988 176.346ZM171.023 181.801C171.023 182.806 171.44 183.838 172.459 184.521C173.484 183.797 173.936 182.724 173.936 181.801V181.377H175.658V181.801C175.645 183.1 176.342 184.303 177.996 184.809L177.148 186.08C175.959 185.677 175.18 184.918 174.756 183.961C174.339 184.918 173.614 185.752 172.5 186.189C171.324 185.766 170.593 184.959 170.189 184.002C169.752 184.932 168.986 185.684 167.852 186.08L166.99 184.809C168.631 184.248 169.314 183.018 169.328 181.801V181.377H171.023V181.801ZM176.916 173.83V180.857H175.166V173.83H176.916ZM170.094 174.459C172.035 174.459 173.498 175.689 173.498 177.453C173.498 179.189 172.035 180.42 170.094 180.42C168.152 180.42 166.689 179.189 166.689 177.453C166.689 175.689 168.152 174.459 170.094 174.459ZM170.094 175.922C169.096 175.922 168.385 176.496 168.398 177.453C168.385 178.396 169.096 178.971 170.094 178.971C171.064 178.971 171.775 178.396 171.775 177.453C171.775 176.496 171.064 175.922 170.094 175.922ZM182.029 174.691C183.711 174.691 184.962 176.079 185.215 178.314H187.375V173.816H189.098V186.285H187.375V179.709H185.229C185.044 182.102 183.766 183.564 182.029 183.564C180.143 183.564 178.789 181.855 178.803 179.121C178.789 176.414 180.143 174.691 182.029 174.691ZM182.029 176.264C181.1 176.264 180.457 177.275 180.471 179.121C180.457 180.98 181.1 181.979 182.029 181.979C182.973 181.979 183.588 180.98 183.588 179.121C183.588 177.275 182.973 176.264 182.029 176.264ZM202.086 183.373V184.809H190.697V183.373H193.24V180.324C192.276 179.75 191.695 178.868 191.695 177.768C191.695 175.758 193.664 174.418 196.371 174.418C199.064 174.418 201.047 175.758 201.061 177.768C201.054 178.841 200.486 179.716 199.557 180.297V183.373H202.086ZM196.371 175.799C194.594 175.799 193.418 176.51 193.418 177.768C193.418 178.984 194.594 179.736 196.371 179.736C198.135 179.736 199.324 178.984 199.338 177.768C199.324 176.51 198.135 175.799 196.371 175.799ZM194.963 183.373H197.793V180.953C197.349 181.042 196.87 181.09 196.371 181.09C195.872 181.09 195.4 181.049 194.963 180.953V183.373ZM207.719 181.555C207.24 181.555 206.83 181.158 206.844 180.666C206.83 180.188 207.24 179.791 207.719 179.791C208.197 179.791 208.594 180.188 208.594 180.666C208.594 181.158 208.197 181.555 207.719 181.555ZM224.617 180.885V181.773H221.678V186.107H220.598V181.773H217.48V186.107H216.373V181.773H213.488V180.885H224.617ZM219.025 174.445C221.582 174.445 223.305 175.471 223.305 177.098C223.305 178.711 221.582 179.736 219.025 179.723C216.469 179.736 214.746 178.711 214.746 177.098C214.746 175.471 216.469 174.445 219.025 174.445ZM219.025 175.32C217.125 175.32 215.84 176.018 215.854 177.098C215.84 178.178 217.125 178.861 219.025 178.861C220.912 178.861 222.211 178.178 222.211 177.098C222.211 176.018 220.912 175.32 219.025 175.32ZM229.676 177.221C229.676 179.367 231.098 181.568 232.82 182.416L232.164 183.277C230.824 182.573 229.703 181.138 229.17 179.449C228.623 181.247 227.475 182.778 226.107 183.51L225.424 182.648C227.201 181.773 228.609 179.436 228.623 177.221V175.006H229.676V177.221ZM235.008 173.953V178.889H237.045V179.818H235.008V186.107H233.941V173.953H235.008ZM245.275 175.922C245.275 177.576 246.533 179.094 248.297 179.695L247.709 180.543C246.362 180.051 245.303 179.046 244.77 177.781C244.25 179.21 243.17 180.338 241.748 180.885L241.174 180.023C242.992 179.34 244.209 177.713 244.223 175.84V174.582H245.275V175.922ZM250.717 173.953V177.125H252.549V178.027H250.717V181.35H249.65V173.953H250.717ZM246.82 181.664C249.322 181.664 250.826 182.471 250.826 183.865C250.826 185.287 249.322 186.08 246.82 186.08C244.318 186.08 242.787 185.287 242.787 183.865C242.787 182.471 244.318 181.664 246.82 181.664ZM246.82 182.525C244.988 182.525 243.854 183.031 243.867 183.865C243.854 184.727 244.988 185.219 246.82 185.232C248.666 185.219 249.787 184.727 249.787 183.865C249.787 183.031 248.666 182.525 246.82 182.525ZM264.389 179.832V180.721H259.371V182.156H263.035V185.943H254.668V182.156H258.318V180.721H253.314V179.832H264.389ZM263.336 174.35V175.238H261.463V177.795H263.295V178.684H254.395V177.795H256.227V175.238H254.354V174.35H263.336ZM255.734 183.004V185.068H261.982V183.004H255.734ZM257.293 177.795H260.396V175.238H257.293V177.795ZM272.592 185.137C270.801 185.137 269.447 184.029 269.379 182.512H270.568C270.664 183.4 271.525 184.057 272.592 184.057C273.877 184.057 274.807 183.113 274.807 181.869C274.807 180.584 273.836 179.641 272.51 179.627C271.676 179.613 271.033 179.873 270.664 180.516H269.475L270.172 175.102H275.531V176.195H271.197L270.828 179.094H270.924C271.361 178.752 272.031 178.52 272.729 178.52C274.615 178.52 276.01 179.914 276.01 181.842C276.01 183.756 274.561 185.137 272.592 185.137ZM287.357 173.967V182.949H286.277V178.615H283.584V177.713H286.277V173.967H287.357ZM283.639 174.896C283.625 178.014 281.396 180.393 277.938 181.527L277.473 180.666C280.275 179.743 282.224 178 282.463 175.799H278.088V174.896H283.639ZM287.672 184.945V185.848H279.619V182.033H280.713V184.945H287.672ZM302.943 173.953V186.107H301.863V173.953H302.943ZM299.348 175.279C299.334 178.779 297.707 181.869 293.633 183.824L293.045 182.949C296.333 181.391 298.008 179.06 298.254 176.154H293.605V175.279H299.348ZM311.229 175.471C311.215 176.961 313.266 178.178 315.412 178.479L314.988 179.326C313.026 179.046 311.194 178.062 310.531 176.633C309.875 178.062 308.05 179.046 306.074 179.326L305.678 178.479C307.824 178.178 309.834 176.961 309.834 175.471V175.443H306.006V174.568H315.084V175.443H311.229V175.471ZM316.109 180.215V181.104H311.16V183.592H310.094V181.104H304.98V180.215H316.109ZM314.865 184.945V185.848H306.402V182.375H307.482V184.945H314.865Z" fill="#262627"/>
<path d="M91.3984 174.514V175.895H88.9238C88.9375 177.364 89.8125 178.868 91.7812 179.518L90.9199 180.857C89.5391 180.42 88.5957 179.518 88.0625 178.396C87.502 179.641 86.5107 180.646 85.041 181.117L84.1523 179.736C86.1963 179.08 87.126 177.446 87.1465 175.895H84.6445V174.514H91.3984ZM94.707 181.773V186.258H92.9707V183.168H86.1621V181.773H94.707ZM94.707 173.816V181.227H92.9707V178.232H91.043V176.811H92.9707V173.816H94.707ZM106.807 173.816V181.199H105.07V178.26H103.129V176.852H105.07V173.816H106.807ZM102.555 181.473C105.207 181.486 106.834 182.361 106.848 183.879C106.834 185.383 105.207 186.271 102.555 186.271C99.9023 186.271 98.2754 185.383 98.2754 183.879C98.2754 182.361 99.9023 181.486 102.555 181.473ZM102.555 182.812C100.9 182.812 100.012 183.154 100.012 183.879C100.012 184.59 100.9 184.945 102.555 184.945C104.209 184.945 105.111 184.59 105.111 183.879C105.111 183.154 104.209 182.812 102.555 182.812ZM103.498 174.568V175.963H101.023C101.064 177.412 101.939 178.875 103.881 179.518L103.02 180.885C101.646 180.44 100.702 179.538 100.162 178.41C99.6084 179.682 98.6172 180.707 97.1406 181.213L96.2383 179.832C98.2822 179.148 99.1982 177.521 99.2461 175.963H96.7441V174.568H103.498ZM113.93 174.527V176.182H116.377V174.527H118.1V176.77H120.396V173.816H122.133V181.021H120.396V178.191H118.1V180.488H112.18V174.527H113.93ZM113.93 179.094H116.377V177.535H113.93V179.094ZM122.133 181.514V186.121H113.766V181.514H122.133ZM115.516 182.908V184.727H120.424V182.908H115.516ZM127.807 174.336C129.707 174.322 131.088 175.402 131.088 176.975C131.088 178.533 129.707 179.627 127.807 179.613C125.906 179.627 124.525 178.533 124.539 176.975C124.525 175.402 125.906 174.322 127.807 174.336ZM127.807 175.73C126.877 175.73 126.221 176.182 126.221 176.975C126.221 177.754 126.877 178.205 127.807 178.191C128.764 178.205 129.434 177.754 129.434 176.975C129.434 176.182 128.764 175.73 127.807 175.73ZM134.232 173.83V186.258H132.51V173.83H134.232ZM123.773 180.379C125.975 180.379 129.105 180.324 131.758 179.928L131.867 181.213C130.842 181.418 129.789 181.548 128.75 181.623V185.889H127.014V181.732C125.92 181.78 124.888 181.787 123.992 181.801L123.773 180.379Z" fill="#2699E9"/>
<path d="M82.502 233.107C81.0625 233.097 79.5586 232.248 79.5586 229.369C79.5586 226.662 80.7295 225.115 82.5986 225.115C84.0273 225.115 85.0264 226.007 85.209 227.242H84.0381C83.8877 226.608 83.3828 226.146 82.5986 226.146C81.3955 226.146 80.6973 227.199 80.6973 228.95H80.7832C81.2021 228.295 81.9326 227.897 82.7812 227.897C84.167 227.897 85.2842 228.961 85.2842 230.454C85.2842 231.958 84.1777 233.118 82.502 233.107ZM82.4912 232.119C83.4365 232.119 84.1348 231.389 84.1348 230.476C84.1348 229.584 83.458 228.864 82.5234 228.864C81.5674 228.864 80.8477 229.616 80.8369 230.486C80.8477 231.346 81.5352 232.119 82.4912 232.119ZM89.27 233.107C87.4654 233.107 86.4126 231.657 86.4126 229.111C86.4126 226.587 87.4868 225.115 89.27 225.115C91.0532 225.115 92.1275 226.587 92.1275 229.111C92.1275 231.657 91.064 233.107 89.27 233.107ZM89.27 232.087C90.3228 232.087 90.9458 231.056 90.9458 229.111C90.9458 227.178 90.312 226.114 89.27 226.114C88.2281 226.114 87.5943 227.178 87.5943 229.111C87.5943 231.056 88.2173 232.087 89.27 232.087ZM96.0811 233.107C94.2764 233.107 93.2237 231.657 93.2237 229.111C93.2237 226.587 94.2979 225.115 96.0811 225.115C97.8643 225.115 98.9385 226.587 98.9385 229.111C98.9385 231.657 97.8751 233.107 96.0811 233.107ZM96.0811 232.087C97.1338 232.087 97.7569 231.056 97.7569 229.111C97.7569 227.178 97.1231 226.114 96.0811 226.114C95.0391 226.114 94.4053 227.178 94.4053 229.111C94.4053 231.056 95.0284 232.087 96.0811 232.087ZM101.292 232.259L100.432 235.224H99.5191L100.088 232.259H101.292ZM105.277 233.107C103.473 233.107 102.42 231.657 102.42 229.111C102.42 226.587 103.494 225.115 105.277 225.115C107.061 225.115 108.135 226.587 108.135 229.111C108.135 231.657 107.071 233.107 105.277 233.107ZM105.277 232.087C106.33 232.087 106.953 231.056 106.953 229.111C106.953 227.178 106.319 226.114 105.277 226.114C104.235 226.114 103.602 227.178 103.602 229.111C103.602 231.056 104.225 232.087 105.277 232.087ZM112.089 233.107C110.284 233.107 109.231 231.657 109.231 229.111C109.231 226.587 110.305 225.115 112.089 225.115C113.872 225.115 114.946 226.587 114.946 229.111C114.946 231.657 113.882 233.107 112.089 233.107ZM112.089 232.087C113.141 232.087 113.764 231.056 113.764 229.111C113.764 227.178 113.131 226.114 112.089 226.114C111.047 226.114 110.413 227.178 110.413 229.111C110.413 231.056 111.036 232.087 112.089 232.087ZM118.9 233.107C117.095 233.107 116.042 231.657 116.042 229.111C116.042 226.587 117.116 225.115 118.9 225.115C120.683 225.115 121.757 226.587 121.757 229.111C121.757 231.657 120.694 233.107 118.9 233.107ZM118.9 232.087C119.952 232.087 120.575 231.056 120.575 229.111C120.575 227.178 119.942 226.114 118.9 226.114C117.858 226.114 117.224 227.178 117.224 229.111C117.224 231.056 117.847 232.087 118.9 232.087ZM130.674 224.299V231.593H129.653V230.669H127.719V229.949H129.653V224.299H130.674ZM130.91 232.882V233.709H123.96V230.884H124.969V232.882H130.91ZM122.628 228.692C124.411 228.682 126.806 228.66 128.858 228.402L128.923 229.133C128.101 229.267 127.236 229.358 126.387 229.412V231.292H125.367V229.466C124.432 229.509 123.535 229.514 122.757 229.509L122.628 228.692ZM125.775 224.664C127.182 224.664 128.16 225.341 128.16 226.361C128.16 227.382 127.182 228.037 125.775 228.037C124.346 228.037 123.38 227.382 123.38 226.361C123.38 225.341 124.346 224.664 125.775 224.664ZM125.775 225.427C124.916 225.416 124.336 225.781 124.346 226.361C124.336 226.931 124.916 227.285 125.775 227.285C126.602 227.285 127.182 226.931 127.193 226.361C127.182 225.781 126.602 225.416 125.775 225.427Z" fill="#72787F"/>
<path d="M236.405 233.107C234.719 233.107 233.537 232.194 233.548 230.927C233.537 229.928 234.257 229.111 235.17 228.972V228.929C234.375 228.746 233.838 228.037 233.838 227.188C233.838 225.996 234.923 225.115 236.405 225.115C237.877 225.115 238.951 225.996 238.962 227.188C238.951 228.037 238.414 228.746 237.63 228.929V228.972C238.532 229.111 239.252 229.928 239.263 230.927C239.252 232.194 238.07 233.107 236.405 233.107ZM236.405 232.13C237.415 232.13 238.06 231.604 238.06 230.841C238.06 230.035 237.361 229.455 236.405 229.455C235.438 229.455 234.729 230.035 234.751 230.841C234.729 231.604 235.374 232.13 236.405 232.13ZM236.405 228.521C237.222 228.521 237.802 228.026 237.802 227.296C237.802 226.576 237.232 226.082 236.405 226.082C235.546 226.082 234.987 226.565 234.987 227.296C234.987 228.026 235.578 228.521 236.405 228.521ZM243.152 233.107C241.68 233.107 240.574 232.205 240.52 230.97H241.669C241.734 231.636 242.368 232.119 243.152 232.119C244.097 232.119 244.774 231.432 244.774 230.508C244.774 229.562 244.076 228.875 243.098 228.864C242.475 228.864 242.002 229.068 241.734 229.552H240.617L241.122 225.223H245.526V226.232H242.099L241.841 228.413H241.917C242.239 228.102 242.787 227.887 243.377 227.887C244.838 227.887 245.923 228.972 245.923 230.476C245.923 232.012 244.774 233.107 243.152 233.107ZM249.909 233.107C248.105 233.107 247.052 231.657 247.052 229.111C247.052 226.587 248.126 225.115 249.909 225.115C251.692 225.115 252.767 226.587 252.767 229.111C252.767 231.657 251.703 233.107 249.909 233.107ZM249.909 232.087C250.962 232.087 251.585 231.056 251.585 229.111C251.585 227.178 250.951 226.114 249.909 226.114C248.867 226.114 248.233 227.178 248.233 229.111C248.233 231.056 248.856 232.087 249.909 232.087ZM255.12 232.259L254.26 235.224H253.347L253.917 232.259H255.12ZM259.106 233.107C257.301 233.107 256.248 231.657 256.248 229.111C256.248 226.587 257.322 225.115 259.106 225.115C260.889 225.115 261.963 226.587 261.963 229.111C261.963 231.657 260.9 233.107 259.106 233.107ZM259.106 232.087C260.158 232.087 260.781 231.056 260.781 229.111C260.781 227.178 260.148 226.114 259.106 226.114C258.064 226.114 257.43 227.178 257.43 229.111C257.43 231.056 258.053 232.087 259.106 232.087ZM265.917 233.107C264.112 233.107 263.059 231.657 263.059 229.111C263.059 226.587 264.133 225.115 265.917 225.115C267.7 225.115 268.774 226.587 268.774 229.111C268.774 231.657 267.711 233.107 265.917 233.107ZM265.917 232.087C266.969 232.087 267.592 231.056 267.592 229.111C267.592 227.178 266.959 226.114 265.917 226.114C264.875 226.114 264.241 227.178 264.241 229.111C264.241 231.056 264.864 232.087 265.917 232.087ZM272.728 233.107C270.923 233.107 269.87 231.657 269.87 229.111C269.87 226.587 270.944 225.115 272.728 225.115C274.511 225.115 275.585 226.587 275.585 229.111C275.585 231.657 274.522 233.107 272.728 233.107ZM272.728 232.087C273.78 232.087 274.403 231.056 274.403 229.111C274.403 227.178 273.77 226.114 272.728 226.114C271.686 226.114 271.052 227.178 271.052 229.111C271.052 231.056 271.675 232.087 272.728 232.087ZM284.502 224.299V231.593H283.481V230.669H281.548V229.949H283.481V224.299H284.502ZM284.738 232.882V233.709H277.788V230.884H278.798V232.882H284.738ZM276.456 228.692C278.239 228.682 280.634 228.66 282.686 228.402L282.751 229.133C281.929 229.267 281.064 229.358 280.216 229.412V231.292H279.195V229.466C278.26 229.509 277.363 229.514 276.585 229.509L276.456 228.692ZM279.603 224.664C281.01 224.664 281.988 225.341 281.988 226.361C281.988 227.382 281.01 228.037 279.603 228.037C278.175 228.037 277.208 227.382 277.208 226.361C277.208 225.341 278.175 224.664 279.603 224.664ZM279.603 225.427C278.744 225.416 278.164 225.781 278.175 226.361C278.164 226.931 278.744 227.285 279.603 227.285C280.43 227.285 281.01 226.931 281.021 226.361C281.01 225.781 280.43 225.416 279.603 225.427Z" fill="#72787F"/>
<rect x="29" y="200" width="334" height="18" rx="9" fill="#E8EBED"/>
<rect x="105" y="200" width="155" height="18" rx="9" fill="#2699E9"/>
<path d="M154.803 205.996C154.803 207.21 155.673 208.402 157.123 208.896L156.597 209.691C155.517 209.315 154.717 208.547 154.298 207.597C153.879 208.655 153.036 209.503 151.892 209.906L151.365 209.101C152.848 208.596 153.761 207.307 153.761 206.007V205.738H151.677V204.911H156.865V205.738H154.803V205.996ZM159.379 210.529V213.913H158.358V211.356H152.858V210.529H159.379ZM159.379 204.288V210.046H158.358V207.575H156.575V206.737H158.358V204.288H159.379ZM168.908 204.288V210.014H167.887V207.575H166.093V206.737H167.887V204.288H168.908ZM165.685 210.282C167.705 210.282 168.94 210.948 168.94 212.098C168.94 213.247 167.705 213.902 165.685 213.913C163.666 213.902 162.419 213.247 162.43 212.098C162.419 210.948 163.666 210.282 165.685 210.282ZM165.685 211.077C164.278 211.077 163.44 211.442 163.44 212.098C163.44 212.742 164.278 213.118 165.685 213.107C167.092 213.118 167.93 212.742 167.93 212.098C167.93 211.442 167.092 211.077 165.685 211.077ZM164.332 205.985C164.332 207.21 165.202 208.392 166.652 208.886L166.126 209.691C165.046 209.315 164.251 208.547 163.837 207.597C163.413 208.676 162.57 209.541 161.42 209.96L160.883 209.144C162.376 208.628 163.29 207.328 163.29 205.996V205.781H161.206V204.954H166.394V205.781H164.332V205.985ZM180.618 204.288V208.123H182.111V208.972H180.618V213.902H179.597V204.288H180.618ZM178.104 205.298C178.093 208.08 176.869 210.562 173.7 212.13L173.13 211.335C175.542 210.132 176.853 208.392 177.062 206.146H173.614V205.298H178.104ZM187.751 204.922C187.751 205.287 187.713 205.631 187.644 205.964H189.652V204.299H190.673V210.024H189.652V208.821H187.225V207.994H189.652V206.78H187.386C186.736 208.29 185.259 209.369 183.175 209.928L182.788 209.122C185.076 208.504 186.467 207.28 186.655 205.749H183.293V204.922H187.751ZM190.673 210.443V213.892H189.652V211.249H184.152V210.443H190.673ZM196.367 204.836V206.286H198.774V204.836H199.783V206.673H201.889V204.288H202.909V209.863H201.889V207.521H199.783V209.369H195.347V204.836H196.367ZM196.367 208.553H198.774V207.092H196.367V208.553ZM202.909 210.314V213.795H196.561V210.314H202.909ZM197.57 211.131V212.968H201.91V211.131H197.57ZM207.572 204.729C209.022 204.729 210.075 205.534 210.075 206.727C210.075 207.908 209.022 208.725 207.572 208.714C206.122 208.725 205.091 207.908 205.091 206.727C205.091 205.534 206.122 204.729 207.572 204.729ZM207.572 205.556C206.702 205.556 206.068 206.018 206.079 206.727C206.068 207.425 206.702 207.887 207.572 207.876C208.464 207.887 209.097 207.425 209.097 206.727C209.097 206.018 208.464 205.556 207.572 205.556ZM212.417 204.299V213.913H211.407V204.299H212.417ZM204.403 209.466C206.175 209.466 208.635 209.423 210.741 209.111L210.816 209.874C209.941 210.041 209.028 210.143 208.141 210.207V213.612H207.121V210.261C206.186 210.304 205.305 210.309 204.543 210.314L204.403 209.466Z" fill="#262627"/>
</g>
<defs>
<filter id="filter0_d_980_523" x="86" y="0" width="366" height="116" filterUnits="userSpaceOnUse" color-interpolation-filters="sRGB">
<feFlood flood-opacity="0" result="BackgroundImageFix"/>
<feColorMatrix in="SourceAlpha" type="matrix" values="0 0 0 0 0 0 0 0 0 0 0 0 0 0 0 0 0 0 127 0" result="hardAlpha"/>
<feOffset dy="4"/>
<feGaussianBlur stdDeviation="2"/>
<feComposite in2="hardAlpha" operator="out"/>
<feColorMatrix type="matrix" values="0 0 0 0 0 0 0 0 0 0 0 0 0 0 0 0 0 0 0.15 0"/>
<feBlend mode="normal" in2="BackgroundImageFix" result="effect1_dropShadow_980_523"/>
<feBlend mode="normal" in="SourceGraphic" in2="effect1_dropShadow_980_523" result="shape"/>
</filter>
<filter id="filter1_d_980_523" x="-42" y="280" width="366" height="116" filterUnits="userSpaceOnUse" color-interpolation-filters="sRGB">
<feFlood flood-opacity="0" result="BackgroundImageFix"/>
<feColorMatrix in="SourceAlpha" type="matrix" values="0 0 0 0 0 0 0 0 0 0 0 0 0 0 0 0 0 0 127 0" result="hardAlpha"/>
<feOffset dy="4"/>
<feGaussianBlur stdDeviation="2"/>
<feComposite in2="hardAlpha" operator="out"/>
<feColorMatrix type="matrix" values="0 0 0 0 0 0 0 0 0 0 0 0 0 0 0 0 0 0 0.15 0"/>
<feBlend mode="normal" in2="BackgroundImageFix" result="effect1_dropShadow_980_523"/>
<feBlend mode="normal" in="SourceGraphic" in2="effect1_dropShadow_980_523" result="shape"/>
</filter>
<filter id="filter2_d_980_523" x="13" y="140" width="366" height="116" filterUnits="userSpaceOnUse" color-interpolation-filters="sRGB">
<feFlood flood-opacity="0" result="BackgroundImageFix"/>
<feColorMatrix in="SourceAlpha" type="matrix" values="0 0 0 0 0 0 0 0 0 0 0 0 0 0 0 0 0 0 127 0" result="hardAlpha"/>
<feOffset dy="4"/>
<feGaussianBlur stdDeviation="2"/>
<feComposite in2="hardAlpha" operator="out"/>
<feColorMatrix type="matrix" values="0 0 0 0 0 0 0 0 0 0 0 0 0 0 0 0 0 0 0.15 0"/>
<feBlend mode="normal" in2="BackgroundImageFix" result="effect1_dropShadow_980_523"/>
<feBlend mode="normal" in="SourceGraphic" in2="effect1_dropShadow_980_523" result="shape"/>
</filter>
</defs>
</svg>
