<svg width="390" height="497" viewBox="0 0 390 497" fill="none" xmlns="http://www.w3.org/2000/svg">
<g opacity="0.7" filter="url(#filter0_d_980_525)">
<rect x="168" y="255" width="6" height="6" rx="3" fill="#FDFDFD"/>
</g>
<g filter="url(#filter1_d_980_525)">
<rect x="192" y="255" width="6" height="6" rx="3" fill="#FDFDFD"/>
</g>
<g opacity="0.7" filter="url(#filter2_d_980_525)">
<rect x="216" y="255" width="6" height="6" rx="3" fill="#FDFDFD"/>
</g>
<g filter="url(#filter3_d_980_525)">
<rect x="57" y="4" width="358" height="52" rx="12" fill="#F7F8F9"/>
</g>
<g filter="url(#filter4_d_980_525)">
<rect x="-48" y="70" width="410" height="124" rx="12" fill="#F7F8F9"/>
</g>
<g filter="url(#filter5_d_980_525)">
<rect x="44" y="221" width="410" height="124" rx="12" fill="#F7F8F9"/>
</g>
<g filter="url(#filter6_d_980_525)">
<rect x="-43" y="361" width="410" height="124" rx="12" fill="#F7F8F9"/>
</g>
<path d="M1.85547 81.8164V94.2578H0.119141V88.0234H-2.35547V86.6016H0.119141V81.8164H1.85547ZM-2.28711 83.1152C-2.28711 86.875 -3.50391 89.9375 -7.85156 92.0977L-8.75391 90.7305C-5.60938 89.1787 -4.31055 87.2031 -4.03711 84.4824H-8.16602V83.1152H-2.28711ZM8.54102 83.0195V87.8184H5.49219V90.0469C6.6748 90.0332 7.80273 89.9854 9.07422 89.7871L9.19727 91.1816C7.57031 91.4551 6.23047 91.4961 4.68555 91.4961H3.82422V86.4238H6.85938V84.4277H3.81055V83.0195H8.54102ZM14.2285 81.8164V94.2578H12.5742V87.9277H11.3711V93.6562H9.77148V82.0215H11.3711V86.5195H12.5742V81.8164H14.2285ZM30.1699 87.6953V89.0625H18.7949V87.6953H23.6348V86.6289H20.1758V82.3633H28.8027V83.7168H21.9121V85.2617H28.8711V86.6289H25.3438V87.6953H30.1699ZM24.4551 89.6914C27.1484 89.6914 28.7754 90.5117 28.7891 91.9883C28.7754 93.4375 27.1484 94.2715 24.4551 94.2715C21.7344 94.2715 20.0938 93.4375 20.0938 91.9883C20.0938 90.5117 21.7344 89.6914 24.4551 89.6914ZM24.4551 91.0176C22.7324 91.0176 21.8574 91.3457 21.8711 91.9883C21.8574 92.6445 22.7324 92.9453 24.4551 92.9453C26.1367 92.9453 27.0254 92.6445 27.0391 91.9883C27.0254 91.3457 26.1367 91.0176 24.4551 91.0176ZM41.3535 81.8164V94.2578H39.5898V81.8164H41.3535ZM37.6211 83.1152C37.6211 86.8887 36.2949 90.0195 31.8516 92.125L30.9355 90.7305C34.1484 89.2129 35.5635 87.2441 35.8438 84.4824H31.6055V83.1152H37.6211Z" fill="#FF8D28"/>
<path d="M63.7539 234.006C63.7402 237.834 62.7148 241.047 58.2305 243.371L57.2734 242.059C59.2422 241.02 60.4658 239.864 61.1836 238.49L57.5742 238.818L57.3418 237.342L61.7305 237.082C61.874 236.556 61.9629 235.995 62.0176 235.4H58.0117V234.006H63.7539ZM67.8555 232.816V245.258H66.1191V239.023H63.7266V237.602H66.1191V232.816H67.8555ZM80.8438 239.762V241.156H78.2734V245.285H76.5234V241.156H73.8438V245.285H72.0938V241.156H69.4551V239.762H80.8438ZM79.4766 233.404V238.422H70.7949V233.404H79.4766ZM72.5176 234.785V237.027H77.7402V234.785H72.5176ZM92.0273 232.816V245.258H90.291V232.816H92.0273ZM83.9609 234.006V240.691C85.6426 240.671 87.4473 240.514 89.2793 240.158L89.498 241.594C87.3105 242.045 85.2598 242.195 83.332 242.182H82.2383V234.006H83.9609ZM99.2051 234.211C99.1982 235.38 99.1025 236.487 98.8359 237.52H100.176V233.09H101.803V244.711H100.176V238.928H98.3438C97.6602 240.404 96.498 241.703 94.5977 242.783L93.627 241.594C95.2061 240.678 96.1904 239.646 96.7852 238.436L93.8867 238.736L93.6953 237.26L97.2773 237.068C97.3867 236.604 97.4551 236.118 97.4961 235.605H94.3105V234.211H99.2051ZM104.455 232.816V245.258H102.814V232.816H104.455ZM116.186 232.816V245.285H114.422V232.816H116.186ZM109.432 233.691C111.305 233.691 112.699 235.414 112.699 238.121C112.699 240.855 111.305 242.564 109.432 242.564C107.518 242.564 106.123 240.855 106.137 238.121C106.123 235.414 107.518 233.691 109.432 233.691ZM109.432 235.264C108.461 235.264 107.818 236.275 107.818 238.121C107.818 239.98 108.461 240.979 109.432 240.979C110.375 240.979 111.018 239.98 111.018 238.121C111.018 236.275 110.375 235.264 109.432 235.264ZM122.529 234.963C122.529 236.686 123.377 238.395 125.346 239.119L124.375 240.473C123.069 239.96 122.174 238.982 121.668 237.752C121.121 239.064 120.157 240.09 118.742 240.623L117.812 239.256C119.85 238.531 120.766 236.781 120.766 234.963V233.527H122.529V234.963ZM128.354 232.83V242.059H126.617V238.258H124.484V236.85H126.617V235.852H124.484V234.443H126.617V232.83H128.354ZM128.613 243.645V245.039H120.068V241.17H121.832V243.645H128.613ZM139.742 234.457C139.742 236.275 141.355 238.23 144.172 238.709L143.406 240.158C141.239 239.728 139.626 238.511 138.826 236.904C137.999 238.497 136.386 239.721 134.232 240.158L133.48 238.709C136.242 238.217 137.869 236.262 137.883 234.457V233.555H139.742V234.457ZM144.582 242.291V243.727H133.193V242.291H144.582ZM151.678 233.842V235.264H147.549V237.314H151.5V238.682H147.549V241.033C149.333 241.02 150.782 240.944 152.443 240.678L152.607 242.086C150.707 242.373 149.012 242.428 146.838 242.428H145.785V233.842H151.678ZM155.109 232.816V237.533H156.941V238.996H155.109V245.258H153.359V232.816H155.109ZM160.934 233.186C162.82 233.186 164.256 234.361 164.256 236.029C164.256 237.67 162.82 238.859 160.934 238.859C159.006 238.859 157.584 237.67 157.584 236.029C157.584 234.361 159.006 233.186 160.934 233.186ZM160.934 234.607C159.977 234.607 159.266 235.127 159.279 236.029C159.266 236.918 159.977 237.451 160.934 237.451C161.877 237.451 162.574 236.918 162.574 236.029C162.574 235.127 161.877 234.607 160.934 234.607ZM167.811 232.816V239.051H166.061V232.816H167.811ZM167.811 239.57V242.947H161.193V243.754H168.152V245.121H159.484V241.676H166.074V240.91H159.457V239.57H167.811Z" fill="#2699E9"/>
<path d="M32.7871 377.83V386.908H31.0371V377.83H32.7871ZM33.1152 388.645V390.039H24.4473V386.033H26.2109V388.645H33.1152ZM27.1406 379.717C27.127 381.357 28.002 382.971 30.0527 383.627L29.1641 384.994C27.7627 384.529 26.792 383.6 26.2383 382.41C25.6846 383.688 24.6865 384.714 23.2305 385.213L22.3281 383.832C24.4199 383.135 25.3223 381.398 25.3223 379.717V378.514H27.1406V379.717ZM41.7695 378.896V382.588H37.1211V383.668H42.0566V385.021H39.5V386.566C40.5117 386.525 41.5234 386.464 42.4805 386.361L42.6172 387.633C39.8965 388.07 37.0664 388.084 34.7285 388.057L34.5234 386.635C35.5283 386.642 36.6221 386.642 37.75 386.621V385.021H35.3711V381.33H40.0469V380.264H35.3574V378.896H41.7695ZM44.9277 377.816V390.285H43.1914V377.816H44.9277ZM59.8164 378.541V379.662C59.8164 380.824 59.8164 382.096 59.502 383.832H61.1426V385.24H56.2891V390.271H54.5391V385.24H49.7949V383.832H57.7383C58.0527 382.226 58.0801 381.009 58.0801 379.936H51.0938V378.541H59.8164ZM73.2422 383.941V385.322H68.416V386.402H71.8613V390.244H70.125V387.783H63.1523V386.402H66.6934V385.322H61.8945V383.941H73.2422ZM68.416 377.83V378.951H72.1484V380.305H68.5527C68.751 381.2 70.0156 382.007 72.7363 382.191L72.2031 383.49C69.9199 383.333 68.334 382.677 67.5547 381.672C66.7686 382.677 65.1826 383.333 62.9062 383.49L62.373 382.191C65.0801 382.007 66.3447 381.2 66.5566 380.305H62.9883V378.951H66.6934V377.83H68.416Z" fill="#93C572"/>
<path d="M-0.433594 106.496V110.68H1.19531V111.605H-0.433594V116.984H-1.54688V106.496H-0.433594ZM-3.17578 107.598C-3.1875 110.633 -4.52344 113.34 -7.98047 115.051L-8.60156 114.184C-5.9707 112.871 -4.54102 110.973 -4.3125 108.523H-8.07422V107.598H-3.17578ZM7.33622 107.188C7.33622 107.586 7.2952 107.961 7.21903 108.324H9.41044V106.508H10.5237V112.754H9.41044V111.441H6.762V110.539H9.41044V109.215H6.93778C6.2288 110.861 4.61747 112.039 2.34403 112.648L1.92216 111.77C4.41825 111.096 5.93583 109.76 6.14091 108.09H2.47294V107.188H7.33622ZM10.5237 113.211V116.973H9.41044V114.09H3.41044V113.211H10.5237ZM20.6376 107.387V112.32H15.6454V107.387H20.6376ZM16.7352 108.289V111.43H19.536V108.289H16.7352ZM23.8016 106.508V114.031H22.6883V106.508H23.8016ZM24.118 115.766V116.68H16.9344V113.305H18.0594V115.766H24.118ZM33.7277 106.496V108.969H35.2511V109.895H33.7277V112.426H32.6144V106.496H33.7277ZM30.8332 107.152C30.8214 109.848 29.005 111.734 25.8761 112.578L25.4308 111.688C27.9386 111.025 29.421 109.707 29.6261 108.066H25.923V107.152H30.8332ZM33.7277 112.871V116.855H27.0011V112.871H33.7277ZM28.1144 113.797V115.965H32.6261V113.797H28.1144ZM44.3686 111.336V112.227H41.1928V114.793H45.4702V115.707H35.8608V114.793H40.0913V112.227H37.0561V107.305H44.2748V108.207H38.1694V111.336H44.3686Z" fill="#262627"/>
<path d="M66.9609 262.535V263.426H57.3867V262.535H66.9609ZM62.168 264.223C64.4297 264.211 65.7891 264.891 65.7891 266.109C65.7891 267.328 64.4297 267.996 62.168 267.996C59.8828 267.996 58.5234 267.328 58.5234 266.109C58.5234 264.891 59.8828 264.211 62.168 264.223ZM62.168 265.066C60.5625 265.066 59.6484 265.43 59.6484 266.109C59.6484 266.766 60.5625 267.129 62.168 267.129C63.75 267.129 64.6758 266.766 64.6758 266.109C64.6758 265.43 63.75 265.066 62.168 265.066ZM62.168 257.742C64.4648 257.754 65.918 258.516 65.918 259.77C65.918 261.023 64.4648 261.773 62.168 261.773C59.8711 261.773 58.418 261.023 58.418 259.77C58.418 258.516 59.8711 257.754 62.168 257.742ZM62.168 258.633C60.5508 258.633 59.5547 259.043 59.5664 259.77C59.5547 260.496 60.5508 260.906 62.168 260.906C63.7734 260.906 64.7695 260.496 64.7695 259.77C64.7695 259.043 63.7734 258.633 62.168 258.633ZM76.0198 257.496V259.898H77.5433V260.824H76.0198V263.098H74.9065V257.496H76.0198ZM72.9026 258.164V259.078H69.3401V261.867C71.385 261.861 72.5393 261.797 73.8518 261.516L73.9808 262.418C72.5628 262.711 71.3206 262.781 69.0706 262.781H68.2386V258.164H72.9026ZM70.3948 263.648V264.844H74.9065V263.648H76.0198V267.832H69.2933V263.648H70.3948ZM70.3948 266.93H74.9065V265.723H70.3948V266.93ZM90.1297 257.496V267.996H89.0633V262.582H87.8212V267.457H86.7665V257.707H87.8212V261.668H89.0633V257.496H90.1297ZM86.0751 258.773V259.688H85.243V264.387C85.5946 264.357 85.9344 264.322 86.2508 264.281L86.3094 265.102C84.6571 265.418 82.4657 265.465 81.1063 265.465L80.9774 264.527L82.0321 264.516V259.688H81.2001V258.773H86.0751ZM83.0516 264.504C83.4383 264.492 83.8309 264.48 84.2235 264.457V259.688H83.0516V264.504ZM100.232 257.508V265.277H99.1183V261.316H97.1496V260.414H99.1183V257.508H100.232ZM100.501 266.871V267.773H93.3878V264.609H94.5128V266.871H100.501ZM96.7628 258.316V259.219H93.1066V260.52H96.4582V261.398H93.1066V262.781C94.9054 262.775 95.9777 262.734 97.255 262.512L97.3605 263.414C95.9777 263.66 94.8058 263.707 92.7902 263.707H92.005V258.316H96.7628Z" fill="#262627"/>
<path d="M31.3984 402.496V412.996H30.332V402.496H31.3984ZM29.2656 402.719V412.469H28.2109V407.125H26.582V406.211H28.2109V402.719H29.2656ZM25.5508 405.426C25.5508 407.219 26.2773 409.012 27.7539 409.867L27.0859 410.688C26.084 410.09 25.3926 409.029 25.0352 407.758C24.6543 409.129 23.9395 410.295 22.9141 410.934L22.2344 410.102C23.7227 409.199 24.4844 407.289 24.4844 405.426V404.582H22.5508V403.68H27.3555V404.582H25.5508V405.426ZM42.344 407.523V408.414H38.1018V409.539H41.1722V412.867H33.9183V409.539H37.0003V408.414H32.7698V407.523H42.344ZM41.4417 402.824V403.727H39.9183V405.73H41.3948V406.633H33.6956V405.73H35.1839V403.727H33.6487V402.824H41.4417ZM35.0198 410.418V411.965H40.094V410.418H35.0198ZM36.2854 405.73H38.805V403.727H36.2854V405.73ZM54.8485 402.496V407.898H53.7352V405.203H51.5204V404.301H53.7352V402.496H54.8485ZM54.8485 408.391V411.004H49.0946V411.977H55.2118V412.867H48.0047V410.16H53.7469V409.27H47.9813V408.391H54.8485ZM49.786 403.75C49.786 405.086 50.7469 406.328 52.329 406.832L51.743 407.699C50.5887 407.301 49.7157 406.51 49.2587 405.508C48.7958 406.633 47.8934 407.518 46.6571 407.945L46.0594 407.055C47.7001 406.527 48.6727 405.227 48.6844 403.75V402.836H49.786V403.75ZM65.2316 402.496V408.695H64.1183V407.137H61.8332V407.992H56.9582V403.281H61.8332V404.148H64.1183V402.496H65.2316ZM58.0597 404.172V407.102H60.7433V404.172H58.0597ZM61.716 408.988C63.9191 408.988 65.2668 409.715 65.2668 410.992C65.2668 412.258 63.9191 412.984 61.716 412.973C59.5128 412.984 58.1535 412.258 58.1652 410.992C58.1535 409.715 59.5128 408.988 61.716 408.988ZM61.716 409.844C60.1808 409.855 59.2668 410.254 59.2668 410.992C59.2668 411.695 60.1808 412.117 61.716 412.117C63.2511 412.117 64.1652 411.695 64.1652 410.992C64.1652 410.254 63.2511 409.855 61.716 409.844ZM61.8332 406.234H64.1183V405.039H61.8332V406.234Z" fill="#262627"/>
<path d="M0.480469 129.984V130.887H-8.15625V129.984H-4.38281V128.648H-3.28125V129.984H0.480469ZM0.996094 136.934V137.836H-8.61328V136.934H-6.15234V135.059C-6.91406 134.725 -7.33594 134.186 -7.33594 133.477C-7.33594 132.223 -6 131.484 -3.83203 131.496C-1.67578 131.484 -0.339844 132.223 -0.339844 133.477C-0.339844 134.186 -0.767578 134.725 -1.52344 135.059V136.934H0.996094ZM-3.83203 132.352C-5.33203 132.352 -6.21094 132.762 -6.19922 133.477C-6.21094 134.18 -5.33203 134.59 -3.83203 134.59C-2.35547 134.59 -1.47656 134.18 -1.47656 133.477C-1.47656 132.762 -2.35547 132.352 -3.83203 132.352ZM-5.03906 136.934H-2.61328V135.363C-2.98242 135.428 -3.39258 135.457 -3.83203 135.457C-4.27148 135.457 -4.67578 135.428 -5.03906 135.363V136.934ZM6.55106 128.613C8.91825 128.613 10.3011 129.258 10.3011 130.418C10.3011 131.59 8.91825 132.234 6.55106 132.234C4.18388 132.234 2.80106 131.59 2.80106 130.418C2.80106 129.258 4.18388 128.613 6.55106 128.613ZM6.55106 129.445C4.87528 129.457 3.9495 129.797 3.96122 130.418C3.9495 131.074 4.87528 131.402 6.55106 131.402C8.22684 131.402 9.15263 131.074 9.15263 130.418C9.15263 129.797 8.22684 129.457 6.55106 129.445ZM11.344 132.809V133.699H8.76591V134.637H10.137V137.098H4.01981V138.035H10.43V138.891H2.92997V136.289H9.03544V135.469H2.91825V134.637H4.31278V133.699H1.76981V132.809H11.344ZM5.41434 134.637H7.65263V133.699H5.41434V134.637ZM18.9618 131.59C18.9618 133.348 20.1102 135.164 21.7274 135.855L21.118 136.723C19.8817 136.178 18.8973 135.023 18.411 133.617C17.9247 135.117 16.9344 136.395 15.7157 136.992L15.0712 136.113C16.6532 135.375 17.8251 133.395 17.8368 131.59V130.477H15.4344V129.551H21.3524V130.477H18.9618V131.59ZM23.7899 128.496V138.996H22.6766V128.496H23.7899ZM35.216 130.23V131.145H33.7277V132.469H35.216V133.383H33.7277V135.234H32.6144V128.496H33.7277V130.23H35.216ZM30.3761 135.316C32.5207 135.316 33.8449 135.996 33.8449 137.156C33.8449 138.293 32.5207 138.984 30.3761 138.973C28.2082 138.984 26.8839 138.293 26.8957 137.156C26.8839 135.996 28.2082 135.316 30.3761 135.316ZM30.3761 136.172C28.8644 136.172 27.9855 136.512 27.9972 137.156C27.9855 137.766 28.8644 138.129 30.3761 138.129C31.8644 138.129 32.7433 137.766 32.7433 137.156C32.7433 136.512 31.8644 136.172 30.3761 136.172ZM31.7472 129.621V130.5H25.4894V129.621H28.0675V128.414H29.1808V129.621H31.7472ZM28.6183 130.98C30.13 130.98 31.1613 131.73 31.1613 132.855C31.1613 133.98 30.13 134.719 28.6183 134.707C27.0832 134.719 26.0636 133.98 26.0636 132.855C26.0636 131.73 27.0832 130.98 28.6183 130.98ZM28.6183 131.812C27.7277 131.812 27.13 132.211 27.1418 132.855C27.13 133.477 27.7277 133.863 28.6183 133.863C29.5089 133.863 30.1066 133.477 30.1183 132.855C30.1066 132.211 29.5089 131.812 28.6183 131.812Z" fill="#262627"/>
<path d="M66.1406 279.496V285.742H65.0273V283.082H63.0703V282.168H65.0273V279.496H66.1406ZM62.625 286.035C64.8281 286.035 66.1758 286.762 66.1758 288.016C66.1758 289.27 64.8281 289.984 62.625 289.996C60.4219 289.984 59.0625 289.27 59.0742 288.016C59.0625 286.762 60.4219 286.035 62.625 286.035ZM62.625 286.902C61.0898 286.902 60.1758 287.301 60.1758 288.016C60.1758 288.719 61.0898 289.129 62.625 289.117C64.1602 289.129 65.0742 288.719 65.0742 288.016C65.0742 287.301 64.1602 286.902 62.625 286.902ZM61.1484 281.348C61.1484 282.684 62.0977 283.973 63.6797 284.512L63.1055 285.391C61.9277 284.98 61.0605 284.143 60.6094 283.105C60.1465 284.283 59.2266 285.227 57.9727 285.684L57.3867 284.793C59.0156 284.23 60.0117 282.812 60.0117 281.359V281.125H57.7383V280.223H63.3984V281.125H61.1484V281.348ZM77.3792 287.77V288.695H67.7698V287.77H72.0003V285.613H68.8714V280.211H69.9847V282.016H75.1409V280.211H76.2425V285.613H73.1018V287.77H77.3792ZM69.9847 284.711H75.1409V282.918H69.9847V284.711ZM90.1063 279.496V289.996H89.0399V279.496H90.1063ZM87.9735 279.719V289.469H86.9188V284.125H85.2899V283.211H86.9188V279.719H87.9735ZM84.2587 282.426C84.2587 284.219 84.9852 286.012 86.4618 286.867L85.7938 287.688C84.7919 287.09 84.1005 286.029 83.743 284.758C83.3622 286.129 82.6473 287.295 81.6219 287.934L80.9422 287.102C82.4305 286.199 83.1922 284.289 83.1922 282.426V281.582H81.2587V280.68H86.0633V281.582H84.2587V282.426ZM96.2121 286.094C98.4855 286.094 99.9152 286.809 99.9269 288.039C99.9152 289.258 98.4855 289.984 96.2121 289.973C93.9621 289.984 92.5207 289.258 92.5207 288.039C92.5207 286.809 93.9621 286.094 96.2121 286.094ZM96.2121 286.938C94.6183 286.938 93.6222 287.348 93.6339 288.039C93.6222 288.719 94.6183 289.117 96.2121 289.117C97.8175 289.117 98.8136 288.719 98.8253 288.039C98.8136 287.348 97.8175 286.938 96.2121 286.938ZM99.8449 280.012V280.891C99.8449 281.734 99.8449 282.602 99.5519 283.68L98.4621 283.562C98.7433 282.49 98.7433 281.717 98.7433 280.902H92.6027V280.012H99.8449ZM101.04 284.324V285.227H91.4894V284.324H95.3214V282.355H96.4113V284.324H101.04Z" fill="#262627"/>
<path d="M31.1289 424.496V434.996H30.0273V429.57H27.6719V428.656H30.0273V424.496H31.1289ZM27.707 425.621C27.6953 428.668 26.5117 431.281 22.9492 433.051L22.3633 432.172C25.1465 430.812 26.3828 428.92 26.582 426.512H22.832V425.621H27.707ZM37.0589 425.598V429.395H34.1761V431.609C35.3186 431.604 36.3968 431.551 37.6565 431.352L37.7503 432.242C36.2854 432.5 35.1253 432.535 33.8128 432.547H33.0979V428.48H35.9808V426.512H33.0862V425.598H37.0589ZM41.7815 424.496V434.996H40.7151V429.488H39.3558V434.457H38.3362V424.707H39.3558V428.586H40.7151V424.496H41.7815ZM55.6922 430.801V431.715H51.4266V434.996H50.3251V431.715H46.0829V430.801H55.6922ZM54.6258 428.938V429.828H47.3485V424.965H54.5087V425.855H48.4383V426.934H54.2743V427.801H48.4383V428.938H54.6258ZM65.2316 424.496V430.695H64.1183V429.137H61.8332V429.992H56.9582V425.281H61.8332V426.148H64.1183V424.496H65.2316ZM58.0597 426.172V429.102H60.7433V426.172H58.0597ZM61.716 430.988C63.9191 430.988 65.2668 431.715 65.2668 432.992C65.2668 434.258 63.9191 434.984 61.716 434.973C59.5128 434.984 58.1535 434.258 58.1652 432.992C58.1535 431.715 59.5128 430.988 61.716 430.988ZM61.716 431.844C60.1808 431.855 59.2668 432.254 59.2668 432.992C59.2668 433.695 60.1808 434.117 61.716 434.117C63.2511 434.117 64.1652 433.695 64.1652 432.992C64.1652 432.254 63.2511 431.855 61.716 431.844ZM61.8332 428.234H64.1183V427.039H61.8332V428.234ZM70.5873 426.066C70.5873 427.543 71.5366 428.855 73.1303 429.371L72.5209 430.238C71.3666 429.822 70.517 429.014 70.06 427.965C69.603 429.166 68.6889 430.098 67.4233 430.555L66.8256 429.664C68.5014 429.09 69.4741 427.695 69.4858 426.113V425.082H70.5873V426.066ZM75.6147 424.496V430.695H74.5014V427.543H72.2866V426.629H74.5014V424.496H75.6147ZM72.0991 430.988C74.3022 430.988 75.6498 431.715 75.6498 432.992C75.6498 434.258 74.3022 434.984 72.0991 434.973C69.8959 434.984 68.5366 434.258 68.5483 432.992C68.5366 431.715 69.8959 430.988 72.0991 430.988ZM72.0991 431.855C70.5639 431.855 69.6498 432.266 69.6498 432.992C69.6498 433.695 70.5639 434.094 72.0991 434.094C73.6342 434.094 74.5483 433.695 74.5483 432.992C74.5483 432.266 73.6342 431.855 72.0991 431.855Z" fill="#262627"/>
<path d="M0.128906 150.496V160.996H-0.972656V155.57H-3.32812V154.656H-0.972656V150.496H0.128906ZM-3.29297 151.621C-3.30469 154.668 -4.48828 157.281 -8.05078 159.051L-8.63672 158.172C-5.85352 156.812 -4.61719 154.92 -4.41797 152.512H-8.16797V151.621H-3.29297ZM6.05888 151.598V155.395H3.17606V157.609C4.31864 157.604 5.39677 157.551 6.65653 157.352L6.75028 158.242C5.28544 158.5 4.12528 158.535 2.81278 158.547H2.09794V154.48H4.98075V152.512H2.08622V151.598H6.05888ZM10.7815 150.496V160.996H9.71513V155.488H8.35575V160.457H7.33622V150.707H8.35575V154.586H9.71513V150.496H10.7815ZM24.6688 154.902V155.793H15.0946V154.902H24.6688ZM23.4618 156.637V159.109H17.3446V160.035H23.7547V160.891H16.2547V158.301H22.3602V157.469H16.243V156.637H23.4618ZM23.8133 150.883V151.773H20.5438C20.743 152.699 22.2489 153.449 24.1883 153.59L23.8251 154.457C22.0145 154.287 20.5087 153.637 19.8758 152.641C19.2372 153.637 17.7372 154.287 15.9383 154.457L15.5868 153.59C17.5028 153.449 19.0087 152.688 19.2079 151.773H15.9735V150.883H23.8133ZM31.0324 151.152C31.0324 153.848 29.1222 155.734 26.0168 156.555L25.5714 155.676C28.1027 155.02 29.6378 153.707 29.8371 152.043H26.1574V151.152H31.0324ZM34.1847 150.508V156.414H33.0714V150.508H34.1847ZM34.1847 156.883V160.855H27.3058V156.883H34.1847ZM28.4074 157.773V159.965H33.0949V157.773H28.4074Z" fill="#262627"/>
<path d="M66.0938 301.508V309.242H64.9805V301.508H66.0938ZM66.4102 310.871V311.773H59.2266V308.527H60.3516V310.871H66.4102ZM61.2891 303.945C61.2891 305.258 62.2969 306.477 63.9258 306.957L63.3867 307.836C62.1562 307.455 61.2305 306.664 60.7617 305.645C60.2871 306.752 59.3613 307.613 58.1133 308.012L57.5625 307.145C59.1914 306.629 60.1758 305.34 60.1758 303.945V303.734H57.8438V302.844H60.1758V301.543H61.3008V302.844H63.6094V303.734H61.2891V303.945ZM76.1604 302.117V302.949C76.1604 303.84 76.1604 304.883 75.9026 306.266H77.3792V307.18H67.7698V306.266H74.7776C75.053 304.9 75.0589 303.904 75.0589 303.02H68.9768V302.117H76.1604ZM76.4768 310.859V311.773H69.0237V308.27H70.1253V310.859H76.4768ZM86.4029 301.496V304.215H87.9263V305.164H86.4029V307.824H85.2896V301.496H86.4029ZM86.4029 308.375V311.867H79.6998V308.375H86.4029ZM80.7896 309.254V310.965H85.3013V309.254H80.7896ZM84.4224 302.562V303.453H78.1646V302.562H80.7428V301.414H81.856V302.562H84.4224ZM81.2935 303.91C82.8053 303.91 83.8365 304.66 83.8365 305.785C83.8365 306.922 82.8053 307.66 81.2935 307.672C79.7584 307.66 78.7388 306.922 78.7388 305.785C78.7388 304.66 79.7584 303.91 81.2935 303.91ZM81.2935 304.766C80.4029 304.754 79.8053 305.152 79.817 305.785C79.8053 306.441 80.4029 306.828 81.2935 306.828C82.1842 306.828 82.7818 306.441 82.7935 305.785C82.7818 305.152 82.1842 304.754 81.2935 304.766Z" fill="#262627"/>
<path d="M31.9844 451.805V452.707H27.8125V454.746H26.7109V452.707H22.375V451.805H31.9844ZM30.7422 446.988V450.715H23.6055V446.988H30.7422ZM24.6953 447.867V449.836H29.6406V447.867H24.6953ZM30.918 455.871V456.773H23.5703V453.75H24.6836V455.871H30.918ZM41.7815 446.496V456.996H40.7151V446.496H41.7815ZM39.6487 446.719V456.469H38.594V451.125H36.9651V450.211H38.594V446.719H39.6487ZM35.9339 449.426C35.9339 451.219 36.6604 453.012 38.137 453.867L37.469 454.688C36.4671 454.09 35.7757 453.029 35.4183 451.758C35.0374 453.129 34.3225 454.295 33.2972 454.934L32.6175 454.102C34.1058 453.199 34.8675 451.289 34.8675 449.426V448.582H32.9339V447.68H37.7386V448.582H35.9339V449.426ZM55.1063 446.496V456.996H54.0399V451.57H52.6805V456.457H51.661V446.707H52.6805V450.656H54.0399V446.496H55.1063ZM50.3837 447.762V448.664H47.5594V453.527C48.8485 453.516 49.8212 453.457 50.9462 453.246L51.0282 454.16C49.7626 454.418 48.6844 454.465 47.1493 454.477H46.4462V447.762H50.3837ZM66.0519 451.535V452.426H56.4777V451.535H66.0519ZM61.2589 453.223C63.5207 453.211 64.88 453.891 64.88 455.109C64.88 456.328 63.5207 456.996 61.2589 456.996C58.9738 456.996 57.6144 456.328 57.6144 455.109C57.6144 453.891 58.9738 453.211 61.2589 453.223ZM61.2589 454.066C59.6535 454.066 58.7394 454.43 58.7394 455.109C58.7394 455.766 59.6535 456.129 61.2589 456.129C62.841 456.129 63.7668 455.766 63.7668 455.109C63.7668 454.43 62.841 454.066 61.2589 454.066ZM61.2589 446.742C63.5558 446.754 65.0089 447.516 65.0089 448.77C65.0089 450.023 63.5558 450.773 61.2589 450.773C58.9621 450.773 57.5089 450.023 57.5089 448.77C57.5089 447.516 58.9621 446.754 61.2589 446.742ZM61.2589 447.633C59.6418 447.633 58.6457 448.043 58.6574 448.77C58.6457 449.496 59.6418 449.906 61.2589 449.906C62.8644 449.906 63.8605 449.496 63.8605 448.77C63.8605 448.043 62.8644 447.633 61.2589 447.633Z" fill="#262627"/>
<path d="M-2.69531 173.504V174.395H-8.60156V173.504H-6.14062V172.402H-5.03906V173.504H-2.69531ZM-5.60156 174.84C-4.18359 174.84 -3.1875 175.602 -3.17578 176.738C-3.1875 177.887 -4.18359 178.637 -5.60156 178.637C-7.03125 178.637 -8.01562 177.887 -8.01562 176.738C-8.01562 175.602 -7.03125 174.84 -5.60156 174.84ZM-5.60156 175.695C-6.43359 175.695 -6.97266 176.094 -6.97266 176.738C-6.97266 177.383 -6.43359 177.805 -5.60156 177.805C-4.78125 177.805 -4.21875 177.383 -4.20703 176.738C-4.21875 176.094 -4.78125 175.695 -5.60156 175.695ZM0.140625 172.496V178.719H-0.972656V177.84H-2.67188V176.938H-0.972656V175.789H-2.66016V174.875H-0.972656V172.496H0.140625ZM-5.67188 179.141V180.137H-0.960938V179.141H0.140625V182.867H-6.77344V179.141H-5.67188ZM-5.67188 181.988H-0.960938V180.992H-5.67188V181.988ZM5.39091 174.172C5.39091 175.555 6.35184 176.832 7.92216 177.348L7.3245 178.227C6.17606 177.822 5.31473 177.002 4.86356 175.965C4.40067 177.143 3.51005 178.062 2.28544 178.52L1.68778 177.629C3.32841 177.043 4.27763 175.648 4.28934 174.078V173.047H5.39091V174.172ZM10.0198 172.496V175.133H11.5433V176.07H10.0198V178.836H8.90653V172.496H10.0198ZM6.63309 179.082C8.78934 179.082 10.1136 179.797 10.1136 181.027C10.1136 182.27 8.78934 182.984 6.63309 182.973C4.45341 182.984 3.10575 182.27 3.10575 181.027C3.10575 179.797 4.45341 179.082 6.63309 179.082ZM6.63309 179.961C5.10966 179.961 4.20731 180.359 4.21903 181.027C4.20731 181.719 5.10966 182.094 6.63309 182.105C8.14481 182.094 9.02372 181.719 9.02372 181.027C9.02372 180.359 8.14481 179.961 6.63309 179.961ZM24.6922 178.426V179.34H22.2547V182.996H21.1297V179.34H18.6219V182.996H17.4735V179.34H15.0829V178.426H24.6922ZM19.8641 172.895C22.079 172.895 23.6024 173.797 23.6024 175.215C23.6024 176.609 22.079 177.5 19.8641 177.488C17.6376 177.5 16.1258 176.609 16.1258 175.215C16.1258 173.797 17.6376 172.895 19.8641 172.895ZM19.8641 173.785C18.3055 173.797 17.2626 174.336 17.2743 175.215C17.2626 176.07 18.3055 176.609 19.8641 176.609C21.4227 176.609 22.4657 176.07 22.4657 175.215C22.4657 174.336 21.4227 173.797 19.8641 173.785ZM34.2316 172.508V180.242H33.1183V177.512H30.5168C30.0187 178.104 29.257 178.461 28.3839 178.461C26.8019 178.461 25.63 177.359 25.63 175.812C25.63 174.254 26.8019 173.152 28.3839 173.141C29.2511 173.146 30.007 173.504 30.505 174.09H33.1183V172.508H34.2316ZM34.5128 181.871V182.773H27.4113V179.434H28.5246V181.871H34.5128ZM28.3839 174.137C27.3996 174.137 26.6964 174.816 26.6964 175.812C26.6964 176.809 27.3996 177.477 28.3839 177.477C29.3332 177.477 30.048 176.809 30.048 175.812C30.048 174.816 29.3332 174.137 28.3839 174.137ZM30.9972 174.992C31.0675 175.244 31.1144 175.52 31.1144 175.812C31.1144 176.094 31.0734 176.363 30.9972 176.609H33.1183V174.992H30.9972ZM39.5873 174.066C39.5873 175.543 40.5366 176.855 42.1303 177.371L41.5209 178.238C40.3666 177.822 39.517 177.014 39.06 175.965C38.603 177.166 37.6889 178.098 36.4233 178.555L35.8256 177.664C37.5014 177.09 38.4741 175.695 38.4858 174.113V173.082H39.5873V174.066ZM44.6147 172.496V178.695H43.5014V175.543H41.2866V174.629H43.5014V172.496H44.6147ZM41.0991 178.988C43.3022 178.988 44.6498 179.715 44.6498 180.992C44.6498 182.258 43.3022 182.984 41.0991 182.973C38.8959 182.984 37.5366 182.258 37.5483 180.992C37.5366 179.715 38.8959 178.988 41.0991 178.988ZM41.0991 179.855C39.5639 179.855 38.6498 180.266 38.6498 180.992C38.6498 181.695 39.5639 182.094 41.0991 182.094C42.6342 182.094 43.5483 181.695 43.5483 180.992C43.5483 180.266 42.6342 179.855 41.0991 179.855Z" fill="#262627"/>
<path d="M66.1406 323.496V328.898H65.0273V326.203H62.8125V325.301H65.0273V323.496H66.1406ZM66.1406 329.391V332.004H60.3867V332.977H66.5039V333.867H59.2969V331.16H65.0391V330.27H59.2734V329.391H66.1406ZM61.0781 324.75C61.0781 326.086 62.0391 327.328 63.6211 327.832L63.0352 328.699C61.8809 328.301 61.0078 327.51 60.5508 326.508C60.0879 327.633 59.1855 328.518 57.9492 328.945L57.3516 328.055C58.9922 327.527 59.9648 326.227 59.9766 324.75V323.836H61.0781V324.75ZM76.5237 323.496V329.695H75.4104V328.137H73.1253V328.992H68.2503V324.281H73.1253V325.148H75.4104V323.496H76.5237ZM69.3518 325.172V328.102H72.0354V325.172H69.3518ZM73.0081 329.988C75.2112 329.988 76.5589 330.715 76.5589 331.992C76.5589 333.258 75.2112 333.984 73.0081 333.973C70.805 333.984 69.4456 333.258 69.4573 331.992C69.4456 330.715 70.805 329.988 73.0081 329.988ZM73.0081 330.844C71.4729 330.855 70.5589 331.254 70.5589 331.992C70.5589 332.695 71.4729 333.117 73.0081 333.117C74.5433 333.117 75.4573 332.695 75.4573 331.992C75.4573 331.254 74.5433 330.855 73.0081 330.844ZM73.1253 327.234H75.4104V326.039H73.1253V327.234ZM89.8485 323.496V329.695H88.7352V328.137H86.4501V328.992H81.5751V324.281H86.4501V325.148H88.7352V323.496H89.8485ZM82.6766 325.172V328.102H85.3602V325.172H82.6766ZM86.3329 329.988C88.536 329.988 89.8837 330.715 89.8837 331.992C89.8837 333.258 88.536 333.984 86.3329 333.973C84.1297 333.984 82.7704 333.258 82.7821 331.992C82.7704 330.715 84.1297 329.988 86.3329 329.988ZM86.3329 330.844C84.7977 330.855 83.8837 331.254 83.8837 331.992C83.8837 332.695 84.7977 333.117 86.3329 333.117C87.868 333.117 88.7821 332.695 88.7821 331.992C88.7821 331.254 87.868 330.855 86.3329 330.844ZM86.4501 327.234H88.7352V326.039H86.4501V327.234ZM99.7394 323.508V326.625H101.239V327.539H99.7394V330.574H98.6261V323.508H99.7394ZM91.4074 329.402C92.2218 329.402 93.1652 329.402 94.1496 329.367V328.664C92.9543 328.541 92.1925 327.979 92.2043 327.129C92.1925 326.168 93.1886 325.57 94.7003 325.582C96.2003 325.57 97.1964 326.168 97.1964 327.129C97.1964 327.973 96.4464 328.535 95.2628 328.664V329.332C96.2003 329.285 97.1496 329.209 98.0285 329.086L98.1222 329.883C95.8605 330.281 93.3761 330.293 91.5246 330.293L91.4074 329.402ZM99.7394 331.066V333.996H98.6261V331.934H92.7199V331.066H99.7394ZM97.7355 324.398V325.23H91.6769V324.398H94.1496V323.414H95.2628V324.398H97.7355ZM94.7003 326.344C93.798 326.332 93.2589 326.625 93.2589 327.129C93.2589 327.621 93.798 327.938 94.7003 327.938C95.591 327.938 96.13 327.621 96.13 327.129C96.13 326.625 95.591 326.332 94.7003 326.344ZM110.369 328.336V329.227H107.193V331.793H111.47V332.707H101.861V331.793H106.091V329.227H103.056V324.305H110.275V325.207H104.169V328.336H110.369Z" fill="#262627"/>
<path d="M331.516 114.485V113.529L334.953 108.223H336.414V113.486H337.478V114.485H336.414V116H335.297V114.485H331.516ZM332.762 113.486H335.297V109.63H335.211L332.762 113.422V113.486ZM341.668 107.857L339.165 117.171H338.144L340.647 107.857H341.668ZM345.17 116.107C343.698 116.107 342.592 115.205 342.538 113.97H343.688C343.752 114.636 344.386 115.119 345.17 115.119C346.115 115.119 346.792 114.432 346.792 113.508C346.792 112.562 346.094 111.875 345.116 111.864C344.493 111.864 344.021 112.068 343.752 112.552H342.635L343.14 108.223H347.544V109.232H344.117L343.859 111.413H343.935C344.257 111.102 344.805 110.887 345.396 110.887C346.856 110.887 347.941 111.972 347.941 113.476C347.941 115.012 346.792 116.107 345.17 116.107Z" fill="#72787F"/>
<path d="M331.688 138V137.141L334.384 134.423C335.232 133.531 335.662 133.037 335.662 132.36C335.662 131.598 335.039 131.104 334.223 131.104C333.363 131.104 332.805 131.651 332.805 132.479H331.688C331.677 131.061 332.762 130.115 334.244 130.115C335.748 130.115 336.779 131.061 336.79 132.328C336.779 133.198 336.371 133.886 334.91 135.325L333.331 136.926V136.99H336.919V138H331.688ZM341.227 129.857L338.724 139.171H337.704L340.207 129.857H341.227ZM344.73 138.107C343.258 138.107 342.151 137.205 342.098 135.97H343.247C343.312 136.636 343.945 137.119 344.73 137.119C345.675 137.119 346.352 136.432 346.352 135.508C346.352 134.562 345.653 133.875 344.676 133.864C344.053 133.864 343.58 134.068 343.312 134.552H342.194L342.699 130.223H347.104V131.232H343.677L343.419 133.413H343.494C343.816 133.102 344.364 132.887 344.955 132.887C346.416 132.887 347.501 133.972 347.501 135.476C347.501 137.012 346.352 138.107 344.73 138.107Z" fill="#72787F"/>
<path d="M334.448 160.107C332.837 160.107 331.688 159.237 331.645 157.97H332.848C332.891 158.657 333.567 159.087 334.438 159.087C335.372 159.087 336.06 158.571 336.06 157.819C336.06 157.057 335.415 156.498 334.309 156.498H333.643V155.531H334.309C335.189 155.531 335.812 155.037 335.812 154.296C335.812 153.587 335.286 153.104 334.459 153.104C333.675 153.104 332.987 153.533 332.955 154.242H331.816C331.849 152.975 333.02 152.115 334.47 152.115C335.995 152.115 336.962 153.082 336.951 154.231C336.962 155.112 336.414 155.757 335.576 155.961V156.015C336.64 156.165 337.252 156.874 337.252 157.862C337.252 159.162 336.06 160.107 334.448 160.107ZM341.549 151.857L339.046 161.171H338.026L340.529 151.857H341.549ZM345.052 160.107C343.58 160.107 342.474 159.205 342.42 157.97H343.569C343.634 158.636 344.268 159.119 345.052 159.119C345.997 159.119 346.674 158.432 346.674 157.508C346.674 156.562 345.976 155.875 344.998 155.864C344.375 155.864 343.902 156.068 343.634 156.552H342.517L343.022 152.223H347.426V153.232H343.999L343.741 155.413H343.816C344.139 155.102 344.687 154.887 345.277 154.887C346.738 154.887 347.823 155.972 347.823 157.476C347.823 159.012 346.674 160.107 345.052 160.107Z" fill="#72787F"/>
<path d="M331.516 180.485V179.529L334.953 174.223H336.414V179.486H337.478V180.485H336.414V182H335.297V180.485H331.516ZM332.762 179.486H335.297V175.63H335.211L332.762 179.422V179.486ZM341.668 173.857L339.165 183.171H338.144L340.647 173.857H341.668ZM345.17 182.107C343.698 182.107 342.592 181.205 342.538 179.97H343.688C343.752 180.636 344.386 181.119 345.17 181.119C346.115 181.119 346.792 180.432 346.792 179.508C346.792 178.562 346.094 177.875 345.116 177.864C344.493 177.864 344.021 178.068 343.752 178.552H342.635L343.14 174.223H347.544V175.232H344.117L343.859 177.413H343.935C344.257 177.102 344.805 176.887 345.396 176.887C346.856 176.887 347.941 177.972 347.941 179.476C347.941 181.012 346.792 182.107 345.17 182.107Z" fill="#72787F"/>
<rect x="63" y="106" width="260" height="12" rx="6" fill="#E8EBED"/>
<rect x="129" y="257" width="260" height="12" rx="6" fill="#E8EBED"/>
<rect x="94" y="402" width="260" height="12" rx="6" fill="#E8EBED"/>
<rect x="63" y="128" width="260" height="12" rx="6" fill="#E8EBED"/>
<rect x="129" y="279" width="260" height="12" rx="6" fill="#E8EBED"/>
<rect x="94" y="424" width="260" height="12" rx="6" fill="#E8EBED"/>
<rect x="63" y="150" width="260" height="12" rx="6" fill="#E8EBED"/>
<rect x="129" y="301" width="260" height="12" rx="6" fill="#E8EBED"/>
<rect x="94" y="446" width="260" height="12" rx="6" fill="#E8EBED"/>
<rect x="63" y="172" width="260" height="12" rx="6" fill="#E8EBED"/>
<rect x="129" y="323" width="260" height="12" rx="6" fill="#E8EBED"/>
<rect x="63" y="106" width="222" height="12" rx="6" fill="#FF8D28" fill-opacity="0.6"/>
<rect x="129" y="257" width="222" height="12" rx="6" fill="#2699E9" fill-opacity="0.6"/>
<rect x="94" y="402" width="222" height="12" rx="6" fill="#93C572" fill-opacity="0.6"/>
<rect x="63" y="128" width="117" height="12" rx="6" fill="#FF8D28" fill-opacity="0.6"/>
<rect x="129" y="279" width="120" height="12" rx="6" fill="#2699E9" fill-opacity="0.6"/>
<rect x="94" y="424" width="120" height="12" rx="6" fill="#93C572" fill-opacity="0.6"/>
<rect x="63" y="150" width="165" height="12" rx="6" fill="#FF8D28" fill-opacity="0.6"/>
<rect x="129" y="301" width="222" height="12" rx="6" fill="#2699E9" fill-opacity="0.6"/>
<rect x="94" y="446" width="171" height="12" rx="6" fill="#93C572" fill-opacity="0.6"/>
<rect x="63" y="172" width="222" height="12" rx="6" fill="#FF8D28" fill-opacity="0.6"/>
<rect x="129" y="323" width="165" height="12" rx="6" fill="#2699E9" fill-opacity="0.6"/>
<path d="M73 21.5H378" stroke="#9EA4AA" stroke-width="4" stroke-linecap="round"/>
<path d="M73 37H281" stroke="#9EA4AA" stroke-width="4" stroke-linecap="round"/>
<defs>
<filter id="filter0_d_980_525" x="152" y="239" width="38" height="38" filterUnits="userSpaceOnUse" color-interpolation-filters="sRGB">
<feFlood flood-opacity="0" result="BackgroundImageFix"/>
<feColorMatrix in="SourceAlpha" type="matrix" values="0 0 0 0 0 0 0 0 0 0 0 0 0 0 0 0 0 0 127 0" result="hardAlpha"/>
<feOffset/>
<feGaussianBlur stdDeviation="8"/>
<feComposite in2="hardAlpha" operator="out"/>
<feColorMatrix type="matrix" values="0 0 0 0 0 0 0 0 0 0 0 0 0 0 0 0 0 0 0.1 0"/>
<feBlend mode="normal" in2="BackgroundImageFix" result="effect1_dropShadow_980_525"/>
<feBlend mode="normal" in="SourceGraphic" in2="effect1_dropShadow_980_525" result="shape"/>
</filter>
<filter id="filter1_d_980_525" x="176" y="239" width="38" height="38" filterUnits="userSpaceOnUse" color-interpolation-filters="sRGB">
<feFlood flood-opacity="0" result="BackgroundImageFix"/>
<feColorMatrix in="SourceAlpha" type="matrix" values="0 0 0 0 0 0 0 0 0 0 0 0 0 0 0 0 0 0 127 0" result="hardAlpha"/>
<feOffset/>
<feGaussianBlur stdDeviation="8"/>
<feComposite in2="hardAlpha" operator="out"/>
<feColorMatrix type="matrix" values="0 0 0 0 0 0 0 0 0 0 0 0 0 0 0 0 0 0 0.1 0"/>
<feBlend mode="normal" in2="BackgroundImageFix" result="effect1_dropShadow_980_525"/>
<feBlend mode="normal" in="SourceGraphic" in2="effect1_dropShadow_980_525" result="shape"/>
</filter>
<filter id="filter2_d_980_525" x="200" y="239" width="38" height="38" filterUnits="userSpaceOnUse" color-interpolation-filters="sRGB">
<feFlood flood-opacity="0" result="BackgroundImageFix"/>
<feColorMatrix in="SourceAlpha" type="matrix" values="0 0 0 0 0 0 0 0 0 0 0 0 0 0 0 0 0 0 127 0" result="hardAlpha"/>
<feOffset/>
<feGaussianBlur stdDeviation="8"/>
<feComposite in2="hardAlpha" operator="out"/>
<feColorMatrix type="matrix" values="0 0 0 0 0 0 0 0 0 0 0 0 0 0 0 0 0 0 0.1 0"/>
<feBlend mode="normal" in2="BackgroundImageFix" result="effect1_dropShadow_980_525"/>
<feBlend mode="normal" in="SourceGraphic" in2="effect1_dropShadow_980_525" result="shape"/>
</filter>
<filter id="filter3_d_980_525" x="49" y="0" width="374" height="68" filterUnits="userSpaceOnUse" color-interpolation-filters="sRGB">
<feFlood flood-opacity="0" result="BackgroundImageFix"/>
<feColorMatrix in="SourceAlpha" type="matrix" values="0 0 0 0 0 0 0 0 0 0 0 0 0 0 0 0 0 0 127 0" result="hardAlpha"/>
<feOffset dy="4"/>
<feGaussianBlur stdDeviation="4"/>
<feComposite in2="hardAlpha" operator="out"/>
<feColorMatrix type="matrix" values="0 0 0 0 0 0 0 0 0 0 0 0 0 0 0 0 0 0 0.15 0"/>
<feBlend mode="normal" in2="BackgroundImageFix" result="effect1_dropShadow_980_525"/>
<feBlend mode="normal" in="SourceGraphic" in2="effect1_dropShadow_980_525" result="shape"/>
</filter>
<filter id="filter4_d_980_525" x="-56" y="66" width="426" height="140" filterUnits="userSpaceOnUse" color-interpolation-filters="sRGB">
<feFlood flood-opacity="0" result="BackgroundImageFix"/>
<feColorMatrix in="SourceAlpha" type="matrix" values="0 0 0 0 0 0 0 0 0 0 0 0 0 0 0 0 0 0 127 0" result="hardAlpha"/>
<feOffset dy="4"/>
<feGaussianBlur stdDeviation="4"/>
<feComposite in2="hardAlpha" operator="out"/>
<feColorMatrix type="matrix" values="0 0 0 0 0 0 0 0 0 0 0 0 0 0 0 0 0 0 0.15 0"/>
<feBlend mode="normal" in2="BackgroundImageFix" result="effect1_dropShadow_980_525"/>
<feBlend mode="normal" in="SourceGraphic" in2="effect1_dropShadow_980_525" result="shape"/>
</filter>
<filter id="filter5_d_980_525" x="36" y="217" width="426" height="140" filterUnits="userSpaceOnUse" color-interpolation-filters="sRGB">
<feFlood flood-opacity="0" result="BackgroundImageFix"/>
<feColorMatrix in="SourceAlpha" type="matrix" values="0 0 0 0 0 0 0 0 0 0 0 0 0 0 0 0 0 0 127 0" result="hardAlpha"/>
<feOffset dy="4"/>
<feGaussianBlur stdDeviation="4"/>
<feComposite in2="hardAlpha" operator="out"/>
<feColorMatrix type="matrix" values="0 0 0 0 0 0 0 0 0 0 0 0 0 0 0 0 0 0 0.15 0"/>
<feBlend mode="normal" in2="BackgroundImageFix" result="effect1_dropShadow_980_525"/>
<feBlend mode="normal" in="SourceGraphic" in2="effect1_dropShadow_980_525" result="shape"/>
</filter>
<filter id="filter6_d_980_525" x="-51" y="357" width="426" height="140" filterUnits="userSpaceOnUse" color-interpolation-filters="sRGB">
<feFlood flood-opacity="0" result="BackgroundImageFix"/>
<feColorMatrix in="SourceAlpha" type="matrix" values="0 0 0 0 0 0 0 0 0 0 0 0 0 0 0 0 0 0 127 0" result="hardAlpha"/>
<feOffset dy="4"/>
<feGaussianBlur stdDeviation="4"/>
<feComposite in2="hardAlpha" operator="out"/>
<feColorMatrix type="matrix" values="0 0 0 0 0 0 0 0 0 0 0 0 0 0 0 0 0 0 0.15 0"/>
<feBlend mode="normal" in2="BackgroundImageFix" result="effect1_dropShadow_980_525"/>
<feBlend mode="normal" in="SourceGraphic" in2="effect1_dropShadow_980_525" result="shape"/>
</filter>
</defs>
</svg>
